<svg width="72" height="72" viewBox="0 0 72 72" fill="none" xmlns="http://www.w3.org/2000/svg">
<path d="M71.8567 33.9162C71.14 24.3368 66.2506 16.6194 60.4286 9.4104C53.8604 1.27547 40.9792 -1.98388 31.1351 1.2115C29.2304 1.83105 27.6006 2.67619 25.5977 2.99943C23.284 3.37318 20.8851 3.34961 18.6859 4.2823C13.2107 6.6056 8.2854 11.6024 5.484 16.8854C4.61348 18.5252 4.01458 20.0471 3.14078 22.8014C1.15428 29.0575 0.165941 32.1855 0.0317622 34.7748C-0.318412 41.5494 2.29971 47.1691 4.29603 51.4555C5.34001 53.6946 6.37744 55.3916 6.67198 55.8697C7.29705 56.8765 8.79266 59.1931 11.4533 62.1527C14.9943 66.0855 16.7878 68.0822 19.9393 69.6984C23.6603 71.6042 27.0573 71.8466 28.9489 71.9611C31.3347 72.1059 33.1445 71.877 38.9698 70.749C45.9111 69.4021 49.3801 68.7287 50.1917 68.4223C58.7628 65.1495 63.6783 58.0988 66.0379 54.7148C67.6252 52.4387 69.5102 49.6844 70.7767 45.5091C72.3116 40.4484 72.0367 36.2631 71.86 33.9162H71.8567Z" fill="white"/>
</svg>
