<svg width="298" height="139" viewBox="0 0 298 139" fill="none" xmlns="http://www.w3.org/2000/svg">
<path d="M15.5119 50.1187C38.1439 13.2809 77.2536 -7.9186 102.866 2.76804C112.822 6.92229 119.273 15.2834 122.11 26.1169C143.927 4.85544 170.934 -5.23324 190.258 2.82974C200.067 6.92231 206.473 15.0977 209.374 25.6976C231.115 4.72271 257.895 -5.18013 277.092 2.82974C302.704 13.5164 305.12 52.0428 282.488 88.8807C259.856 125.719 220.746 146.919 195.134 136.232C185.325 132.139 178.918 123.964 176.018 113.363C154.277 134.338 127.498 144.242 108.301 136.232C98.3442 132.078 91.894 123.716 89.057 112.882C67.24 134.144 40.2329 144.233 20.9084 136.17C-4.7041 125.484 -7.12005 86.9567 15.5119 50.1187Z" fill="#F7B6AD"/>
</svg>
