<svg width="1201" height="787" viewBox="0 0 1201 787" fill="none" xmlns="http://www.w3.org/2000/svg">
<path d="M148.3 10.7128C225.312 -13.4928 295.762 3.49542 347.137 59.9065C395.196 112.676 425.086 198.277 430.908 312.006C464.906 323.314 500.362 339.865 537.072 362.595C608.687 406.936 650.722 466.051 669.847 531.866C683.726 579.629 685.398 630.403 678.155 681.011C722.655 643.725 786.696 622.613 860.781 623.56C960.803 624.84 1080.32 666.106 1200.21 763.041L1181.35 786.369C1065.71 692.87 952.518 654.737 860.397 653.558C767.981 652.376 697.925 688.162 664.811 741.184L637.599 729.356C654.985 664.472 658.144 599.104 641.039 540.237C624.028 481.698 586.72 428.621 521.279 388.102C490.25 368.89 460.358 354.431 431.705 344.034C429.372 494.649 321.994 581.678 217.798 613.726C164.157 630.224 109.652 632.8 68.6017 621.171C48.0356 615.345 29.8195 605.648 17.2108 591.247C4.26171 576.458 -1.912 557.639 0.52104 536.019C4.03186 504.822 20.5924 466.849 47.1403 430.709C73.86 394.335 111.452 358.765 158.401 332.786C223.454 296.789 305.683 279.652 400.341 303.126C393.48 198.677 365.248 124.347 324.958 80.1063C282.156 33.1091 224.201 18.3032 157.295 39.3324L148.3 10.7128ZM401.708 334.48C310.463 309.497 232.996 325.796 172.926 359.035C130.111 382.727 95.7116 415.262 71.3174 448.47C46.7517 481.912 33.0758 514.997 30.3324 539.375C28.8231 552.788 32.5031 563.171 39.7822 571.485C47.4017 580.188 59.7888 587.495 76.7784 592.308C110.839 601.957 159.258 600.345 208.978 585.052C307.191 554.845 403.797 473.799 401.708 334.48Z" fill="white"/>
</svg>
