<svg width="159" height="128" viewBox="0 0 159 128" fill="none" xmlns="http://www.w3.org/2000/svg">
<path d="M69.3332 127.984C69.3229 127.973 68.801 127.954 68.1756 127.942C67.5502 127.929 67.0015 127.919 66.9564 127.919C66.9111 127.919 66.776 127.922 66.6556 127.929C66.5352 127.937 66.1661 127.924 65.8352 127.902C65.0976 127.854 65.1514 127.855 64.6866 127.868C64.476 127.873 64.0207 127.866 63.6748 127.848C63.0695 127.819 62.9687 127.815 62.7587 127.813C62.0168 127.805 61.0938 127.76 61.0422 127.728C61.0061 127.705 60.6913 127.683 60.3429 127.678C59.9946 127.672 59.5496 127.65 59.3541 127.63C59.1585 127.61 58.654 127.584 58.2328 127.571C57.8117 127.558 57.1595 127.521 56.7835 127.488C56.4074 127.456 55.9152 127.419 55.6896 127.406C55.464 127.393 55.0456 127.355 54.7598 127.321C54.4741 127.287 54.0757 127.252 53.8745 127.244C53.6735 127.237 53.4834 127.214 53.4524 127.195C53.4214 127.177 53.1675 127.15 52.8883 127.138C52.3527 127.112 52.2132 127.097 52.0799 127.044C52.0346 127.026 51.8626 126.998 51.697 126.982C51.5316 126.967 51.2116 126.927 50.986 126.894C50.7604 126.861 50.5266 126.832 50.4664 126.829C50.4062 126.827 50.2132 126.794 50.0375 126.755C49.8618 126.717 49.683 126.699 49.6402 126.715C49.5976 126.731 49.526 126.715 49.4816 126.678C49.4371 126.642 49.3472 126.625 49.2821 126.642C49.217 126.66 49.1139 126.647 49.0532 126.614C48.9925 126.582 48.7565 126.535 48.5288 126.51C48.1475 126.468 47.5273 126.353 46.2551 126.09C45.9844 126.034 45.726 125.974 45.6809 125.957C45.6356 125.939 45.5126 125.914 45.4074 125.899C44.8399 125.817 44.7511 125.796 44.7511 125.748C44.7511 125.72 44.6834 125.711 44.5989 125.728C44.5048 125.748 44.3767 125.725 44.2634 125.671C44.1626 125.621 43.9886 125.575 43.8767 125.569C43.7648 125.564 43.639 125.536 43.5969 125.509C43.5336 125.469 43.2302 125.394 42.7821 125.308C42.7369 125.3 42.6018 125.264 42.4813 125.23C42.3609 125.196 42.201 125.156 42.1258 125.141C41.9447 125.105 41.5906 124.976 41.5434 124.929C41.5228 124.909 41.4054 124.892 41.2826 124.892C41.1539 124.892 40.9911 124.847 40.8986 124.787C40.8102 124.729 40.7154 124.696 40.6878 124.713C40.6374 124.744 40.3679 124.675 39.9723 124.532C39.8558 124.489 39.7481 124.467 39.7328 124.482C39.7173 124.498 39.6555 124.482 39.5948 124.451C39.4101 124.353 38.441 124.027 38.3359 124.027C38.2816 124.027 38.1623 123.988 38.0705 123.941C37.9788 123.895 37.8633 123.847 37.8134 123.836C37.7638 123.826 37.5035 123.73 37.2351 123.624C36.9667 123.518 36.7083 123.431 36.6608 123.43C36.6133 123.43 36.5267 123.392 36.4683 123.349C36.4099 123.305 36.3184 123.269 36.2647 123.269C36.2112 123.269 36.0252 123.206 35.8513 123.129C35.6774 123.051 35.4861 122.969 35.4259 122.946C35.3657 122.923 35.2427 122.874 35.1525 122.838C35.0623 122.802 34.8776 122.735 34.7423 122.69C34.6069 122.645 34.2869 122.51 34.0312 122.39C33.7757 122.27 33.4925 122.153 33.4023 122.129C33.124 122.057 32.8276 121.938 32.7606 121.872C32.7255 121.837 32.6572 121.809 32.6087 121.809C32.5603 121.809 32.473 121.773 32.4146 121.73C32.3562 121.686 32.2565 121.649 32.1926 121.649C32.1291 121.649 32.0144 121.598 31.9379 121.539C31.8614 121.479 31.7614 121.431 31.7156 121.431C31.6699 121.431 31.5999 121.399 31.5601 121.361C31.5203 121.323 31.3523 121.234 31.187 121.165C31.0216 121.096 30.7856 120.981 30.6626 120.91C30.5396 120.84 30.3876 120.782 30.3247 120.782C30.2619 120.782 30.1779 120.751 30.1381 120.714C30.0983 120.677 29.9919 120.613 29.9017 120.572C29.8115 120.532 29.6885 120.472 29.6282 120.44C29.568 120.409 29.4205 120.332 29.3001 120.27C29.1797 120.207 28.9829 120.093 28.8625 120.015C28.7421 119.937 28.5453 119.843 28.425 119.806C28.3046 119.768 28.122 119.67 28.0191 119.586C27.9163 119.503 27.8098 119.448 27.7827 119.465C27.7556 119.48 27.6799 119.447 27.6142 119.387C27.5488 119.328 27.3891 119.222 27.2595 119.151C26.7445 118.872 26.6111 118.796 26.3887 118.656C26.2616 118.576 26.1381 118.51 26.1146 118.51C26.0913 118.51 25.9461 118.426 25.7926 118.324C25.6391 118.222 25.344 118.049 25.137 117.941C24.93 117.832 24.6621 117.672 24.5418 117.584C24.1936 117.33 23.8354 117.105 23.7761 117.104C23.7461 117.104 23.6247 117.018 23.5063 116.914C23.388 116.81 23.2526 116.724 23.2056 116.724C23.1583 116.724 22.8518 116.526 22.5243 116.285C22.1969 116.045 21.8995 115.843 21.8634 115.838C21.8275 115.833 21.6921 115.746 21.5629 115.644C21.1749 115.341 20.9997 115.221 20.7301 115.078C20.589 115.003 20.4117 114.886 20.3362 114.819C20.0726 114.584 19.8227 114.399 19.769 114.399C19.7393 114.399 19.6811 114.359 19.6398 114.31C19.554 114.207 19.0124 113.804 18.9609 113.804C18.9428 113.804 18.6309 113.567 18.2694 113.277C17.9079 112.987 17.542 112.701 17.4563 112.641C17.3705 112.582 17.1947 112.441 17.0653 112.328C16.833 112.125 16.258 111.653 15.6021 111.127C15.4168 110.978 15.1128 110.726 14.9264 110.567C14.7401 110.408 14.483 110.189 14.3552 110.081C13.4816 109.337 13.1396 109.017 11.6002 107.505C10.8442 106.762 10.0995 106.003 9.94542 105.818C9.79142 105.634 9.4314 105.222 9.14564 104.904C8.85986 104.586 8.60143 104.284 8.57135 104.232C8.54138 104.18 8.35794 103.963 8.16374 103.749C7.96968 103.535 7.71542 103.233 7.59888 103.079C7.48235 102.924 7.3289 102.743 7.25797 102.677C7.18692 102.61 7.01122 102.391 6.86758 102.19C6.72365 101.988 6.5901 101.812 6.57051 101.797C6.54984 101.781 6.44494 101.636 6.33486 101.472C6.22479 101.309 6.01266 101.004 5.86315 100.796C5.71354 100.588 5.42704 100.15 5.22619 99.8225C5.02542 99.4952 4.7945 99.1424 4.71316 99.0382C4.59327 98.8849 3.98686 97.76 3.39457 96.5926C3.05342 95.9202 2.23778 93.9375 1.87166 92.8907C1.44583 91.6732 0.615593 88.4165 0.613887 87.9569C0.613629 87.8861 0.554695 87.5576 0.482862 87.2268C0.27744 86.2811 0.209662 85.7012 0.0641091 83.6505C-0.0493253 82.0533 -0.00620098 78.7736 0.145992 77.4035C0.156328 77.2993 0.181141 76.9021 0.198194 76.5205C0.216282 76.139 0.244441 75.8025 0.263045 75.7727C0.281132 75.7431 0.303357 75.5198 0.311367 75.2765C0.319119 75.0332 0.388891 74.445 0.465892 73.969C0.542893 73.493 0.630489 72.8967 0.66098 72.6439C0.728937 72.0767 0.768462 71.8487 0.832285 71.6562C0.859416 71.5742 0.897419 71.355 0.916281 71.1694C0.934369 70.9839 0.985255 70.7079 1.02737 70.5563C1.09481 70.3138 1.30508 69.3234 1.57753 67.9653C1.62533 67.7274 1.70981 67.4109 1.76511 67.2622C1.82041 67.1135 1.89379 66.8335 1.9279 66.6402C1.98707 66.3051 2.14599 65.7634 2.25363 65.5314C2.28128 65.4719 2.34329 65.2163 2.39135 64.9635C2.43967 64.7105 2.52831 64.3866 2.58852 64.2434C2.64872 64.1003 2.70867 63.9175 2.72159 63.8377C2.73451 63.7577 2.78204 63.5707 2.82726 63.422C2.87248 63.2733 2.96526 62.9525 3.03373 62.7093C3.10221 62.466 3.17609 62.249 3.19857 62.227C3.22183 62.204 3.23916 62.1363 3.23942 62.0742C3.2396 62.0124 3.2766 61.8918 3.3213 61.8066C3.36626 61.7215 3.40296 61.6211 3.40296 61.5838C3.40296 61.5465 3.47324 61.3485 3.55929 61.1438C3.70993 60.7855 3.75102 60.6754 4.0381 59.8606C4.10993 59.6569 4.20477 59.4257 4.24895 59.3468C4.37117 59.1285 4.87544 57.9911 4.97133 57.7176C5.01784 57.5847 5.16124 57.2683 5.28972 57.0144C5.41814 56.7607 5.54115 56.492 5.56309 56.4177C5.60056 56.2904 5.99248 55.5343 6.08199 55.4171C6.10525 55.3872 6.15458 55.2656 6.19308 55.1466C6.23158 55.0276 6.30861 54.8723 6.36442 54.8013C6.42023 54.7303 6.4657 54.616 6.4657 54.5476C6.4657 54.4788 6.51273 54.3902 6.57036 54.3503C6.62798 54.3104 6.69178 54.189 6.71245 54.0805C6.73312 53.9719 6.7843 53.8702 6.82642 53.8541C6.86853 53.8388 6.90316 53.7793 6.90316 53.7233C6.90316 53.6674 6.97112 53.5266 7.0538 53.4107C7.21891 53.1797 7.31514 52.995 7.36821 52.8076C7.3863 52.7406 7.42559 52.6859 7.45376 52.6859C7.48192 52.6859 7.50463 52.6573 7.50463 52.6225C7.50463 52.5878 7.5398 52.5206 7.58295 52.4736C7.6261 52.4266 7.75527 52.2083 7.87005 51.9887C8.20588 51.3464 8.2247 51.315 8.38305 51.1345C8.46625 51.0397 8.55152 50.9078 8.57296 50.8411C8.61379 50.7136 8.66031 50.6472 8.854 50.4379C8.91938 50.3674 8.98809 50.2618 9.00695 50.2033C9.02504 50.1451 9.16923 49.9096 9.32572 49.6803C9.4823 49.4511 9.65372 49.1998 9.70671 49.1221C9.75968 49.0444 9.81781 48.9382 9.83616 48.8863C9.85425 48.8342 9.8889 48.7917 9.91319 48.7917C9.93644 48.7917 10.0137 48.7005 10.0829 48.5889C10.1522 48.4772 10.2279 48.3617 10.2512 48.332C10.5899 47.8997 11.0053 47.3017 11.0053 47.2463C11.0053 47.2072 11.0495 47.1434 11.1035 47.1045C11.1575 47.0657 11.2497 46.9574 11.3086 46.8639C11.5073 46.5479 11.9 46.0064 11.943 45.989C11.9663 45.9787 12.0407 45.8821 12.1081 45.7725C12.2711 45.507 12.5478 45.1512 12.6326 45.0975C12.6703 45.0746 12.7011 45.025 12.7011 44.9895C12.7012 44.9537 12.8481 44.7664 13.0276 44.573C13.2071 44.3796 13.3546 44.1919 13.3555 44.1557C13.3555 44.1197 13.4064 44.064 13.4667 44.032C13.5269 44.0001 13.5759 43.9388 13.5759 43.8956C13.5759 43.8276 13.8907 43.4343 14.2243 43.0856C14.2811 43.0261 14.4044 42.8679 14.4979 42.734C14.5914 42.6001 14.7545 42.4066 14.8603 42.304C14.966 42.2012 15.0526 42.096 15.0526 42.0699C15.0526 42.0438 15.1466 41.9332 15.2616 41.8238C15.3766 41.7147 15.6182 41.4306 15.7986 41.1926C16.0968 40.7994 16.3727 40.4797 16.8302 39.998C16.9204 39.903 17.0803 39.7201 17.1857 39.5915C17.2909 39.463 17.4694 39.2693 17.5823 39.1613C17.6949 39.0532 17.7874 38.9472 17.7874 38.9257C17.7874 38.9052 18.0027 38.6695 18.266 38.4043C18.5292 38.1391 18.9661 37.6861 19.2368 37.3978C19.7337 36.8685 20.6811 35.9271 20.9909 35.6546C21.0834 35.5733 21.1751 35.4647 21.195 35.4136C21.2157 35.3622 21.3017 35.2802 21.388 35.2314C21.4743 35.1824 21.571 35.0738 21.603 34.9902C21.635 34.9064 21.7064 34.8213 21.7617 34.8011C21.8169 34.7807 22.1778 34.4522 22.5637 34.0708C22.9496 33.6895 23.2778 33.3774 23.2931 33.3774C23.3086 33.3774 23.3972 33.2923 23.4903 33.1881C23.5835 33.0838 23.6791 32.9987 23.7026 32.9987C23.7259 32.9987 24.0232 32.7291 24.3626 32.3995C24.7019 32.07 25.075 31.7231 25.1917 31.6288C25.3085 31.5345 25.5708 31.293 25.7748 31.0922C25.9787 30.8914 26.1666 30.7271 26.1921 30.7271C26.2179 30.7271 26.2675 30.6813 26.3029 30.6251C26.3383 30.5692 26.5595 30.3687 26.7946 30.1798C27.0298 29.9909 27.3374 29.7203 27.4783 29.5785C27.6191 29.4367 27.7581 29.3207 27.7869 29.3207C27.8156 29.3207 27.8536 29.2841 27.8709 29.2394C27.889 29.1947 27.9308 29.1585 27.966 29.1585C28.0009 29.1585 28.1329 29.0549 28.2593 28.9284C28.4729 28.7146 28.7513 28.473 29.1286 28.1735C29.2144 28.1052 29.3314 28.0069 29.3884 27.955C29.4455 27.9029 29.5161 27.8605 29.545 27.8605C29.5742 27.8605 29.6527 27.7874 29.7194 27.6982C29.7861 27.609 29.8737 27.5359 29.9142 27.5359C29.9545 27.5359 30.0021 27.4986 30.0199 27.4529C30.038 27.4071 30.1538 27.3006 30.278 27.2157C30.4023 27.1309 30.6332 26.9431 30.7911 26.7984C30.949 26.6538 31.1412 26.4868 31.2181 26.4272C31.2948 26.3677 31.4733 26.2131 31.6145 26.0836C31.7558 25.9541 32.0375 25.7403 32.2407 25.6084C32.4438 25.4765 32.6899 25.2898 32.7876 25.1935C32.8853 25.0972 33.0766 24.9339 33.2128 24.8304C33.349 24.7269 33.509 24.5989 33.5683 24.5461C33.6277 24.4932 33.7897 24.3593 33.9288 24.2486C34.0678 24.138 34.2396 23.9987 34.3108 23.9392C34.3819 23.8797 34.5632 23.7389 34.7135 23.6262C34.8638 23.5135 35.0069 23.3857 35.0315 23.3422C35.0573 23.2988 35.1085 23.263 35.148 23.263C35.1875 23.263 35.3111 23.1779 35.4226 23.0737C35.5343 22.9694 35.6511 22.8843 35.6822 22.8843C35.7132 22.8843 35.8321 22.8113 35.946 22.7221C36.0599 22.6329 36.1716 22.5598 36.1943 22.5598C36.2176 22.5598 36.2873 22.5112 36.3506 22.4517C36.7652 22.0629 36.8928 21.9626 37.0098 21.9336C37.0821 21.9157 37.1542 21.8679 37.17 21.8275C37.1855 21.7872 37.2744 21.7154 37.3671 21.6678C37.4599 21.6203 37.6025 21.514 37.6844 21.4317C37.7663 21.3492 37.9439 21.226 38.0793 21.1577C38.2146 21.0894 38.3891 20.9632 38.467 20.8771C38.5448 20.791 38.6473 20.7207 38.6949 20.7207C38.7422 20.7207 38.8507 20.6476 38.936 20.5584C39.0212 20.4693 39.1313 20.3962 39.1809 20.3962C39.2305 20.3962 39.285 20.3597 39.3024 20.3152C39.3204 20.2705 39.3706 20.2339 39.4158 20.2339C39.4608 20.2339 39.5241 20.1854 39.5561 20.1259C39.5884 20.0663 39.6373 20.0178 39.6646 20.0178C39.737 20.0178 40.1689 19.7222 40.2901 19.5897C40.347 19.5276 40.4292 19.4768 40.4728 19.4768C40.5165 19.4768 40.6503 19.3999 40.7703 19.3059C41.0129 19.1158 41.3539 18.8817 41.388 18.8817C41.4009 18.8817 41.5247 18.8025 41.6649 18.7059C41.9561 18.5051 42.0972 18.4119 42.3388 18.2616C42.4328 18.203 42.5095 18.1361 42.5095 18.1128C42.5095 18.0898 42.5403 18.0704 42.578 18.0704C42.6157 18.0704 42.7816 17.9733 42.9472 17.8547C43.1126 17.7362 43.3034 17.6151 43.3711 17.5858C43.4388 17.5564 43.4941 17.5073 43.4941 17.4769C43.4941 17.4465 43.5442 17.4215 43.6052 17.4215C43.6661 17.4215 43.7305 17.3849 43.7478 17.3402C43.7659 17.2955 43.8827 17.2137 44.0093 17.1585C44.2561 17.0504 44.8223 16.6765 44.8523 16.6016C44.8626 16.576 44.9035 16.556 44.9438 16.556C44.9841 16.556 45.0872 16.4978 45.173 16.4265C45.2588 16.3552 45.439 16.2417 45.5737 16.1745C45.7083 16.1071 45.8969 15.9952 45.9927 15.9257C46.0885 15.8562 46.1834 15.7992 46.2035 15.7992C46.2242 15.7992 46.3498 15.7261 46.4834 15.6369C46.617 15.5477 46.7469 15.4746 46.7718 15.4746C46.7976 15.4746 46.8477 15.4381 46.8852 15.3937C46.9227 15.3489 46.9994 15.3126 47.056 15.3126C47.1126 15.3126 47.1586 15.2896 47.1586 15.261C47.1586 15.2327 47.2446 15.169 47.3501 15.1197C47.4555 15.0704 47.5415 15.0108 47.5415 14.9878C47.5415 14.9648 47.6408 14.9066 47.7619 14.8586C47.8831 14.8105 48.1037 14.6924 48.2519 14.5958C48.7266 14.2867 48.8992 14.1871 49.0286 14.1476C49.0981 14.1272 49.2521 14.039 49.3709 13.9537C49.4895 13.8683 49.6311 13.7984 49.6854 13.7984C49.7396 13.7984 49.7841 13.7753 49.7841 13.7495C49.7841 13.693 50.0936 13.504 50.2832 13.4447C50.3545 13.4217 50.4876 13.3479 50.5788 13.2794C50.67 13.2106 51.0391 13.0034 51.3992 12.8188C52.6129 12.1964 52.763 12.1156 52.8504 12.0374C52.8984 11.9944 52.9679 11.9594 53.0051 11.9594C53.0424 11.9594 53.1535 11.8986 53.2522 11.8242C53.3509 11.7499 53.4622 11.6891 53.5 11.6891C53.5609 11.6891 53.7593 11.5991 53.9954 11.4647C54.0407 11.4389 54.1637 11.3786 54.2689 11.3306C54.3741 11.2826 54.5095 11.2174 54.5697 11.186C54.6886 11.1239 54.9509 10.9943 55.1023 10.9226C55.1545 10.897 55.2302 10.8776 55.2705 10.8776C55.3108 10.8776 55.4015 10.8168 55.4723 10.7424C55.5431 10.6681 55.6361 10.6072 55.6795 10.6072C55.7229 10.6072 55.8847 10.5436 56.0392 10.4659C56.1937 10.3883 56.3578 10.3063 56.4039 10.2835C56.4499 10.2605 56.5685 10.2248 56.6673 10.2033C56.766 10.1829 56.8604 10.1299 56.8764 10.0883C56.8919 10.0464 56.9495 10.0122 57.0027 10.0122C57.0929 10.0122 57.3187 9.92118 58.0256 9.60016C58.1817 9.52938 58.3266 9.47134 58.3477 9.47134C58.3684 9.47134 58.4134 9.43532 58.4467 9.39111C58.48 9.34716 58.5622 9.30294 58.6291 9.29323C58.696 9.28301 58.7679 9.25878 58.7885 9.23808C58.8092 9.21764 58.8606 9.20052 58.9022 9.20052C58.9441 9.20052 59.0937 9.14836 59.2349 9.08474C59.7878 8.83534 59.9705 8.76788 60.0912 8.76788C60.1602 8.76788 60.245 8.73441 60.2793 8.69327C60.3137 8.65213 60.4173 8.6038 60.5093 8.58566C60.6012 8.56777 60.7395 8.50365 60.8163 8.44386C60.893 8.38406 61.0144 8.33524 61.086 8.33524C61.1576 8.33524 61.2589 8.31223 61.3111 8.2854C61.3633 8.25806 61.5537 8.18146 61.7342 8.11528C61.9146 8.04909 62.1362 7.96528 62.2264 7.92899C62.3931 7.86205 62.7934 7.70694 62.9922 7.63204C63.0524 7.60904 63.2861 7.53489 63.5117 7.46641C63.7373 7.39793 63.9608 7.3098 64.0083 7.27071C64.0558 7.23161 64.1383 7.1994 64.1915 7.1994C64.2447 7.1994 64.3659 7.16617 64.4606 7.12554C64.723 7.01311 65.0387 6.89865 65.3713 6.79521C65.5367 6.74359 65.7501 6.66743 65.8455 6.62552C65.9409 6.58362 66.0951 6.53431 66.1885 6.51591C66.2818 6.49803 66.3714 6.46125 66.3874 6.43519C66.4029 6.40938 66.4743 6.38815 66.5441 6.38815C66.6141 6.38815 66.7417 6.35188 66.828 6.30742C66.914 6.26296 67.0259 6.22639 67.0765 6.22639C67.1272 6.22621 67.3241 6.1556 67.5141 6.06949C67.8597 5.9131 68.1876 5.81702 68.3049 5.83823C68.3795 5.851 69.3674 5.53062 69.4464 5.46735C69.5097 5.4165 70.3257 5.19861 70.4543 5.19809C70.5013 5.19792 70.6013 5.16637 70.6765 5.12804C70.7517 5.08971 70.9609 5.02664 71.1414 4.98755C71.322 4.94845 71.5188 4.89781 71.579 4.87482C71.8894 4.75625 73.0582 4.43673 73.1924 4.43369C73.2376 4.43369 73.3683 4.39694 73.4831 4.35453C73.5978 4.31185 73.7185 4.29342 73.7512 4.31335C73.7838 4.33379 73.8401 4.31078 73.8763 4.26095C73.9125 4.21214 74.0378 4.16029 74.1551 4.14547C74.6673 4.08134 74.8365 4.04708 74.8645 4.00236C74.88 3.97604 74.9467 3.95458 75.0108 3.95458C75.1271 3.95458 75.772 3.8128 75.9272 3.75326C75.9724 3.73537 76.0701 3.71162 76.1445 3.69961C76.2189 3.68683 76.305 3.65793 76.336 3.63417C76.3667 3.61117 76.5029 3.57517 76.6381 3.55575C76.9606 3.50975 77.4032 3.41189 77.5406 3.35618C77.6008 3.33063 77.7607 3.28793 77.8961 3.25855C78.0315 3.22916 78.3022 3.16499 78.4977 3.11619C79.0093 2.98791 80.0968 2.75883 80.1932 2.75891C80.3004 2.75901 81.2128 2.55658 81.4238 2.48585C81.514 2.4557 81.7601 2.40917 81.9707 2.38285C82.1813 2.35653 82.4889 2.30826 82.6544 2.27555C82.8198 2.2431 83.0413 2.20604 83.1466 2.19326C83.4027 2.16234 83.648 2.11401 83.7482 2.07492C83.7935 2.05703 83.8795 2.03709 83.9397 2.02994C83.9999 2.02227 84.2829 1.97529 84.5687 1.9247C84.8545 1.87385 85.199 1.824 85.3344 1.81378C85.6976 1.78618 85.8562 1.75912 85.934 1.71134C85.9723 1.68834 86.155 1.66376 86.3396 1.65763C86.5243 1.65252 86.7312 1.61704 86.7991 1.58127C86.8671 1.54524 86.9469 1.53068 86.9767 1.54883C87.0064 1.56671 87.2335 1.53345 87.4814 1.47365C87.9814 1.35381 88.2831 1.30272 88.6628 1.27333C88.8024 1.26311 88.9906 1.24114 89.0808 1.22555C89.9982 1.06763 90.1731 1.04338 90.2129 1.06765C90.2388 1.08298 90.3507 1.06507 90.4628 1.02904C90.575 0.992495 90.8145 0.956468 90.995 0.949058C91.5362 0.926061 92.0848 0.86014 92.1521 0.807756C92.1869 0.78067 92.4027 0.746711 92.6317 0.732146C92.8606 0.716814 93.1112 0.682047 93.1883 0.652917C93.2656 0.624042 93.3565 0.617383 93.3909 0.63757C93.4692 0.685354 93.8189 0.663364 94.1399 0.590282C94.3952 0.532278 94.5272 0.517228 95.2611 0.464078C95.5017 0.446191 95.7725 0.423711 95.8627 0.413234C96.441 0.34603 96.7997 0.317378 97.2574 0.302813C97.5431 0.292592 97.8204 0.268873 97.8734 0.247665C97.9263 0.227222 98.0041 0.237406 98.0463 0.27318C98.0902 0.309209 98.1359 0.314844 98.1537 0.285969C98.1718 0.258627 98.3145 0.232063 98.4731 0.226953C98.777 0.216732 99.3084 0.177894 99.3084 0.165628C99.3084 0.160518 99.4929 0.150302 99.7186 0.138803C99.9442 0.128582 100.399 0.102787 100.73 0.0823445C101.061 0.0619022 101.455 0.046562 101.605 0.0480952C101.986 0.0532058 101.969 0.0532048 103.219 0.0215192C104.525 -0.0106774 105.938 -0.0063234 106.829 0.0317504C107.175 0.0470821 107.568 0.054703 107.704 0.0495924C108.009 0.0393713 107.947 0.0394167 109.252 0.0769794C109.848 0.0948664 110.357 0.122693 110.384 0.139302C110.411 0.154634 110.724 0.181739 111.078 0.19707C111.433 0.212402 112.068 0.251996 112.489 0.28547C112.911 0.318689 113.366 0.352416 113.501 0.360082C114.192 0.399434 114.694 0.449017 114.841 0.492712C114.931 0.519543 115.128 0.541498 115.279 0.541498C115.429 0.541651 115.623 0.541688 115.709 0.54156C115.795 0.541458 115.895 0.567129 115.932 0.596771C115.97 0.627178 116.157 0.660657 116.35 0.671133C116.543 0.681354 116.738 0.704108 116.783 0.721228C116.828 0.739115 116.974 0.767455 117.108 0.786109C117.242 0.803996 117.381 0.843881 117.416 0.873011C117.457 0.90623 117.53 0.907254 117.613 0.875569C117.696 0.844394 117.781 0.845419 117.841 0.878127C117.893 0.907001 118.04 0.94176 118.166 0.955047C118.293 0.967824 118.556 1.00309 118.752 1.03197C118.947 1.06084 119.181 1.0953 119.271 1.10808C119.527 1.14487 119.758 1.20394 119.818 1.24763C119.848 1.27063 119.996 1.30405 120.146 1.32424C120.297 1.34468 120.539 1.39889 120.684 1.44514C120.83 1.49139 121.019 1.51517 121.106 1.49805C121.193 1.48016 121.278 1.49034 121.297 1.521C121.315 1.55064 121.359 1.56907 121.395 1.56243C121.482 1.54454 122.528 1.7845 122.651 1.84915C122.761 1.90664 123.04 1.9695 123.729 2.09164C123.985 2.13687 124.269 2.20789 124.361 2.24928C124.454 2.29068 124.638 2.34151 124.771 2.36195C124.905 2.38239 125.063 2.43225 125.122 2.47237C125.181 2.51275 125.285 2.54543 125.351 2.54543C125.418 2.54543 125.488 2.57102 125.506 2.59964C125.524 2.62928 125.62 2.65379 125.717 2.65379C125.815 2.65379 125.918 2.67421 125.947 2.70002C125.996 2.74371 126.327 2.85181 126.819 2.98455C126.939 3.017 127.185 3.10004 127.366 3.16878C127.546 3.23751 127.829 3.33389 127.995 3.38244C128.16 3.43099 128.341 3.49559 128.397 3.52574C128.452 3.55589 128.511 3.56791 128.527 3.55232C128.542 3.53699 128.647 3.57022 128.758 3.62618C128.994 3.745 129.64 3.97793 130.073 4.10043C130.239 4.14719 130.417 4.2213 130.469 4.26525C130.521 4.3092 130.607 4.34802 130.66 4.35134C130.713 4.3539 130.88 4.41446 131.031 4.48422C131.331 4.62298 131.52 4.70299 131.687 4.7624C131.747 4.78284 132.007 4.90218 132.265 5.0256C132.523 5.14902 132.762 5.24994 132.796 5.24994C132.829 5.24994 133.008 5.33733 133.192 5.44414C133.376 5.55095 133.593 5.65951 133.674 5.68532C134.023 5.79775 134.381 5.93882 134.558 6.03393C134.896 6.21484 135.403 6.44909 135.498 6.468C135.549 6.47822 135.722 6.56713 135.883 6.66576C136.154 6.83288 136.555 7.04047 136.746 7.11281C136.791 7.1307 136.902 7.19203 136.992 7.25106C137.082 7.30983 137.328 7.44524 137.539 7.55169C137.75 7.65825 138.02 7.81592 138.141 7.90211C138.261 7.98822 138.385 8.05948 138.416 8.0605C138.447 8.0605 138.57 8.11393 138.69 8.17679C138.809 8.23965 139.005 8.34032 139.125 8.40037C139.245 8.46042 139.411 8.56491 139.493 8.63288C139.575 8.7006 139.784 8.82377 139.958 8.90657C140.131 8.98936 140.359 9.12529 140.464 9.2087C140.568 9.29225 140.695 9.36048 140.744 9.36048C140.794 9.36048 140.865 9.39705 140.903 9.44177C140.94 9.48648 140.996 9.52274 141.027 9.52274C141.057 9.52274 141.184 9.60376 141.307 9.70316C141.431 9.8023 141.655 9.95232 141.805 10.0367C141.955 10.121 142.128 10.2306 142.188 10.2802C142.248 10.33 142.378 10.402 142.476 10.4406C142.575 10.4792 142.673 10.5385 142.695 10.5725C142.755 10.666 143.152 10.9522 143.323 11.0249C143.405 11.0602 143.473 11.1118 143.473 11.1394C143.473 11.1672 143.578 11.2403 143.706 11.3021C143.834 11.364 144.037 11.5109 144.157 11.6289C144.277 11.7467 144.41 11.8442 144.451 11.8458C144.493 11.8483 144.579 11.9053 144.643 11.9748C144.706 12.0443 144.845 12.1593 144.95 12.2301C145.055 12.3012 145.235 12.4437 145.349 12.5472C145.463 12.6507 145.645 12.7974 145.754 12.8733C145.862 12.9492 146.064 13.1222 146.203 13.2575C146.341 13.3929 146.614 13.6341 146.81 13.7934C147.279 14.1763 147.95 14.8256 149.161 16.0705C149.868 16.7965 149.973 16.9114 150.277 17.2842C150.446 17.4924 150.655 17.7358 150.741 17.825C150.827 17.9142 150.967 18.0968 151.052 18.2307C151.137 18.3646 151.32 18.6079 151.459 18.7716C151.598 18.9351 151.79 19.2054 151.885 19.3721C151.981 19.5387 152.119 19.7342 152.192 19.8066C152.355 19.9676 152.89 20.7003 153.001 20.9142C153.045 21 153.242 21.3501 153.437 21.6922C154.353 23.2943 154.514 23.5973 154.75 24.1532C154.888 24.4804 155.167 25.1132 155.37 25.5595C155.728 26.3486 156.109 27.4161 156.625 29.0751C156.763 29.5213 156.897 29.9229 156.921 29.9675C156.944 30.0122 157.009 30.2312 157.062 30.4543C157.115 30.6774 157.252 31.2129 157.367 31.6442C157.569 32.4085 157.826 33.6596 158.026 34.8624C158.081 35.1896 158.15 35.5712 158.181 35.7103C158.348 36.4789 158.545 40.0981 158.491 41.4069C158.407 43.4221 158.182 45.6636 157.942 46.8697C157.761 47.7851 157.675 48.2383 157.642 48.4655C157.624 48.5994 157.59 48.7369 157.569 48.771C157.548 48.8049 157.503 49.0218 157.471 49.2529C157.438 49.4839 157.367 49.7969 157.311 49.9481C157.255 50.0994 157.194 50.3082 157.174 50.4124C157.075 50.9225 156.908 51.5434 156.817 51.7375C156.762 51.8566 156.699 52.0512 156.679 52.1702C156.658 52.2893 156.598 52.4596 156.544 52.5488C156.491 52.638 156.43 52.7961 156.409 52.9003C156.388 53.0043 156.327 53.187 156.273 53.306C156.219 53.4251 156.098 53.7657 156.004 54.0632C155.909 54.3607 155.786 54.7015 155.73 54.8204C155.474 55.3623 155.271 55.8617 155.246 56.0104C155.231 56.0995 155.186 56.2099 155.146 56.2557C155.105 56.3014 155.02 56.4596 154.955 56.6073C154.891 56.755 154.705 57.1515 154.543 57.4885C154.381 57.8255 154.248 58.115 154.248 58.1318C154.248 58.165 153.48 59.7118 153.355 59.9316C153.312 60.0059 153.221 60.1764 153.153 60.3102C153.085 60.4441 152.996 60.592 152.955 60.639C152.914 60.686 152.881 60.7652 152.881 60.8151C152.881 60.9139 152.754 61.1648 152.576 61.4193C152.513 61.5085 152.43 61.6605 152.391 61.7571C152.352 61.8537 152.302 61.9329 152.28 61.9329C152.257 61.9329 152.159 62.1095 152.062 62.3251C151.965 62.5407 151.866 62.7294 151.843 62.7442C151.82 62.7596 151.683 63.0133 151.537 63.3091C151.392 63.6049 151.235 63.887 151.188 63.9361C151.142 63.9852 151.044 64.1326 150.973 64.2637C150.901 64.3948 150.775 64.6238 150.694 64.7725C150.613 64.9212 150.458 65.1938 150.351 65.3781C150.243 65.5624 150.138 65.7668 150.117 65.8322C150.096 65.8977 149.934 66.1838 149.757 66.4681C149.58 66.7524 149.435 67.0224 149.435 67.0681C149.435 67.1139 149.352 67.2734 149.251 67.4223C148.865 67.9911 148.68 68.2927 148.642 68.4192C148.618 68.4913 148.579 68.5764 148.553 68.6086C148.465 68.7128 147.63 70.0597 147.63 70.0962C147.63 70.1166 147.544 70.2219 147.439 70.3323C147.334 70.4427 147.247 70.5802 147.247 70.6377C147.247 70.6955 147.149 70.855 147.028 70.9925C146.908 71.13 146.81 71.268 146.81 71.2993C146.81 71.3305 146.7 71.5056 146.565 71.6882C146.431 71.8706 146.213 72.1664 146.081 72.3452C145.95 72.5241 145.811 72.763 145.774 72.8762C145.734 72.9953 145.652 73.1059 145.579 73.1386C145.51 73.1697 145.414 73.2837 145.365 73.3918C145.224 73.7039 145.116 73.8816 144.889 74.1777C144.772 74.3297 144.677 74.4802 144.677 74.5122C144.677 74.5441 144.615 74.6274 144.54 74.6974C144.465 74.7671 144.403 74.8523 144.403 74.8865C144.403 74.9205 144.342 75.0012 144.267 75.0659C144.191 75.1305 144.13 75.2146 144.13 75.2524C144.13 75.3145 143.851 75.6837 143.589 75.9684C143.534 76.028 143.449 76.154 143.4 76.2486C143.351 76.3431 143.188 76.5591 143.038 76.7285C142.888 76.8979 142.749 77.0877 142.729 77.1504C142.708 77.213 142.628 77.3291 142.55 77.4083C142.471 77.4875 142.259 77.7526 142.079 77.9975C141.899 78.2423 141.622 78.5662 141.464 78.7172C141.306 78.8682 141.176 79.0172 141.176 79.0485C141.177 79.0799 141.104 79.1786 141.014 79.2678C140.705 79.5769 140.365 79.9913 140.33 80.1025C140.309 80.1639 140.256 80.2141 140.211 80.2141C140.125 80.2141 139.923 80.4181 139.92 80.5084C139.92 80.5363 139.802 80.6709 139.659 80.8077C139.516 80.9444 139.327 81.1586 139.238 81.2838C139.15 81.409 139.033 81.5255 138.978 81.5427C138.923 81.5606 138.844 81.6393 138.802 81.719C138.76 81.7987 138.551 82.0409 138.338 82.2572C138.124 82.4734 137.949 82.6743 137.949 82.7034C137.949 82.7325 137.929 82.7563 137.904 82.7563C137.845 82.7563 137.512 83.0518 137.512 83.1044C137.512 83.1274 137.389 83.2549 137.238 83.3885C137.088 83.5222 136.965 83.6667 136.965 83.7095C136.965 83.7524 136.922 83.8036 136.869 83.8235C136.792 83.8526 136.537 84.0934 136.265 84.3944C136.244 84.4174 135.913 84.7385 135.529 85.1071C135.146 85.4757 134.832 85.8034 134.832 85.8353C134.832 85.8672 134.805 85.8933 134.773 85.8933C134.74 85.8933 134.621 85.9845 134.508 86.0962C134.395 86.2078 134.212 86.3787 134.102 86.4761C133.992 86.5734 133.902 86.677 133.902 86.7061C133.902 86.735 133.868 86.7587 133.826 86.7587C133.784 86.7587 133.736 86.7953 133.718 86.8397C133.7 86.8845 133.659 86.9207 133.625 86.9207C133.592 86.9207 133.326 87.1642 133.035 87.4616C132.744 87.759 132.486 88.0025 132.462 88.0025C132.439 88.0025 132.3 88.1182 132.155 88.2594C131.829 88.5784 131.296 89.0419 131.187 89.1027C131.05 89.1781 130.73 89.5036 130.73 89.5665C130.73 89.5986 130.697 89.625 130.656 89.625C130.574 89.625 130.307 89.8427 129.894 90.2461C129.742 90.3943 129.591 90.5161 129.558 90.5166C129.525 90.5166 129.426 90.573 129.338 90.641C129.201 90.7473 129.19 90.7749 129.257 90.8382C129.3 90.8786 129.536 90.9512 129.781 90.9993C130.298 91.1007 131.126 91.3602 131.534 91.549C131.69 91.6214 131.844 91.6804 131.878 91.6804C131.911 91.6804 132.032 91.7279 132.148 91.7862C132.263 91.8444 132.372 91.8779 132.389 91.8608C132.407 91.8429 132.525 91.9055 132.653 91.9983C132.78 92.091 132.911 92.1677 132.942 92.1685C132.974 92.1685 133.097 92.2423 133.215 92.3307C133.333 92.4191 133.458 92.4914 133.492 92.4914C133.527 92.4914 133.613 92.5523 133.684 92.6266C133.754 92.701 133.84 92.7618 133.875 92.7618C133.981 92.7618 134.942 93.7111 135.062 93.9334C135.124 94.0476 135.255 94.2627 135.353 94.4115C136.264 95.7865 136.963 98.7589 136.796 100.55C136.767 100.863 136.718 101.197 136.687 101.293C136.655 101.389 136.581 101.657 136.521 101.888C136.308 102.711 136.266 102.851 136.179 103.011C136.131 103.1 136.091 103.201 136.091 103.235C136.091 103.268 136.055 103.325 136.011 103.361C135.967 103.397 135.829 103.637 135.705 103.895C135.581 104.152 135.463 104.375 135.443 104.39C135.422 104.406 135.347 104.527 135.273 104.661C135.2 104.795 135.069 104.974 134.983 105.06C134.803 105.24 134.395 105.82 134.395 105.897C134.395 105.926 134.374 105.958 134.349 105.968C134.323 105.978 134.187 106.137 134.046 106.322C133.904 106.507 133.691 106.761 133.572 106.887C133.453 107.014 133.356 107.135 133.356 107.156C133.356 107.177 133.313 107.21 133.26 107.226C133.207 107.244 133.104 107.348 133.029 107.46C132.898 107.657 132.579 107.973 131.694 108.783C131.457 109 131.118 109.317 130.941 109.488C130.763 109.659 130.593 109.799 130.563 109.799C130.533 109.799 130.494 109.836 130.477 109.88C130.459 109.925 130.412 109.961 130.371 109.961C130.33 109.961 130.271 110.01 130.238 110.069C130.206 110.128 130.11 110.212 130.024 110.256C129.938 110.3 129.798 110.41 129.712 110.5C129.625 110.59 129.533 110.664 129.506 110.664C129.443 110.664 128.905 111.077 128.686 111.293C128.592 111.386 128.463 111.478 128.4 111.497C128.336 111.518 128.24 111.581 128.186 111.639C128.132 111.698 128.056 111.746 128.018 111.746C127.979 111.746 127.927 111.779 127.903 111.819C127.88 111.859 127.786 111.938 127.697 111.995C127.608 112.051 127.474 112.153 127.4 112.221C127.326 112.288 127.208 112.358 127.137 112.376C127.066 112.393 126.984 112.452 126.954 112.507C126.925 112.562 126.796 112.654 126.669 112.712C126.541 112.769 126.376 112.874 126.3 112.944C126.225 113.015 126.045 113.133 125.9 113.207C125.754 113.281 125.541 113.42 125.426 113.517C125.311 113.614 125.195 113.693 125.168 113.693C125.142 113.693 125.035 113.765 124.931 113.853C124.827 113.941 124.708 114.014 124.667 114.015C124.626 114.015 124.5 114.09 124.386 114.18C124.272 114.269 124.156 114.342 124.129 114.342C124.101 114.342 123.995 114.403 123.894 114.477C123.792 114.552 123.665 114.613 123.612 114.613C123.56 114.613 123.496 114.649 123.471 114.692C123.426 114.771 122.828 115.099 122.728 115.099C122.7 115.099 122.526 115.205 122.342 115.334C122.158 115.464 121.941 115.585 121.861 115.605C121.78 115.625 121.64 115.702 121.549 115.777C121.458 115.853 121.27 115.953 121.131 116C120.991 116.047 120.864 116.119 120.848 116.16C120.833 116.201 120.776 116.235 120.722 116.235C120.669 116.235 120.596 116.27 120.56 116.312C120.524 116.355 120.424 116.405 120.337 116.424C120.25 116.442 120.119 116.505 120.046 116.563C119.972 116.62 119.805 116.712 119.673 116.768C119.542 116.823 119.401 116.909 119.36 116.958C119.319 117.006 119.25 117.046 119.205 117.046C119.102 117.046 118.798 117.199 118.452 117.425C118.362 117.484 118.235 117.533 118.171 117.533C118.107 117.533 118.024 117.569 117.987 117.614C117.949 117.659 117.861 117.695 117.791 117.695C117.719 117.695 117.637 117.742 117.604 117.803C117.572 117.863 117.497 117.911 117.437 117.911C117.378 117.911 117.287 117.931 117.234 117.959C116.623 118.264 116.329 118.398 116.27 118.398C116.231 118.398 116.155 118.447 116.1 118.506C116.045 118.566 115.974 118.612 115.941 118.608C115.794 118.59 115.702 118.621 115.593 118.722C115.528 118.782 115.395 118.841 115.296 118.854C115.051 118.885 114.927 118.935 114.728 119.084C114.635 119.152 114.521 119.209 114.474 119.209C114.364 119.209 113.989 119.364 113.885 119.452C113.84 119.49 113.725 119.538 113.629 119.558C113.533 119.579 113.425 119.63 113.39 119.672C113.354 119.715 113.278 119.75 113.221 119.75C113.164 119.75 113.075 119.773 113.023 119.8C112.833 119.899 112.527 120.021 112.468 120.021C112.435 120.021 112.408 120.046 112.408 120.075C112.408 120.105 112.372 120.129 112.328 120.129C112.284 120.129 112.113 120.188 111.949 120.259C111.785 120.331 111.639 120.378 111.624 120.363C111.609 120.348 111.454 120.412 111.278 120.504C111.103 120.595 110.91 120.671 110.85 120.672C110.789 120.672 110.593 120.746 110.413 120.834C110.234 120.922 110.044 120.994 109.993 120.994C109.941 120.994 109.884 121.02 109.865 121.049C109.847 121.078 109.776 121.103 109.708 121.103C109.64 121.103 109.475 121.156 109.342 121.222C109.208 121.287 109.083 121.342 109.063 121.343C109.042 121.346 109.008 121.364 108.985 121.387C108.962 121.41 108.864 121.427 108.765 121.427C108.667 121.427 108.572 121.45 108.555 121.477C108.537 121.504 108.452 121.542 108.364 121.562C108.276 121.579 108.175 121.631 108.139 121.674C108.103 121.717 108.022 121.752 107.958 121.752C107.824 121.752 107.437 121.88 107.204 121.999C107.116 122.044 107.021 122.066 106.992 122.048C106.963 122.03 106.939 122.04 106.939 122.071C106.939 122.102 106.828 122.155 106.692 122.189C106.556 122.223 106.432 122.271 106.417 122.296C106.401 122.321 106.352 122.327 106.306 122.309C106.261 122.291 106.176 122.319 106.118 122.372C106.061 122.423 105.974 122.451 105.927 122.433C105.879 122.415 105.799 122.42 105.747 122.446C105.448 122.595 105.199 122.691 105.075 122.704C104.997 122.712 104.861 122.756 104.774 122.801C104.686 122.847 104.561 122.884 104.495 122.884C104.429 122.884 104.359 122.91 104.341 122.938C104.323 122.968 104.247 122.993 104.173 122.993C104.1 122.993 103.948 123.041 103.836 123.101C103.723 123.16 103.582 123.209 103.521 123.209C103.461 123.209 103.341 123.246 103.254 123.29C103.168 123.335 103.04 123.371 102.971 123.371C102.9 123.371 102.83 123.391 102.814 123.418C102.788 123.459 102.471 123.539 102.235 123.563C102.135 123.574 102.024 123.614 101.629 123.781C101.461 123.852 101.158 123.933 100.955 123.961C100.753 123.99 100.558 124.036 100.522 124.065C100.487 124.093 100.31 124.147 100.13 124.183C99.9494 124.22 99.6225 124.308 99.4034 124.378C99.1843 124.449 98.9179 124.507 98.8116 124.507C98.7051 124.507 98.5744 124.53 98.5209 124.558C98.4078 124.618 98.191 124.671 97.9004 124.708C97.7875 124.724 97.6813 124.757 97.6648 124.783C97.6493 124.81 97.5511 124.831 97.449 124.831C97.3469 124.831 97.2069 124.854 97.1377 124.881C97.0688 124.909 96.9628 124.95 96.9026 124.974C96.8424 124.997 96.707 125.02 96.6018 125.025C96.431 125.032 96.2848 125.072 95.9181 125.215C95.8579 125.238 95.6365 125.273 95.4259 125.293C95.2153 125.313 95.0185 125.346 94.9884 125.368C94.8848 125.442 94.4949 125.537 93.9766 125.614C93.1635 125.735 92.8263 125.797 92.6288 125.862C92.5283 125.894 92.329 125.929 92.1858 125.938C91.8137 125.961 91.4606 126.028 91.4606 126.075C91.4606 126.098 91.3069 126.135 91.1188 126.159C90.9307 126.182 90.7278 126.208 90.6676 126.216C90.6074 126.224 90.4475 126.242 90.3121 126.254C90.1767 126.267 89.9675 126.304 89.8472 126.334C89.7268 126.365 89.5917 126.389 89.5464 126.389C89.5012 126.389 89.2675 126.428 89.0268 126.476C88.7862 126.524 88.4738 126.563 88.3327 126.563C88.1916 126.563 88.063 126.583 88.0468 126.61C88.0313 126.635 87.8876 126.66 87.7291 126.665C87.3467 126.675 87.1098 126.709 86.9911 126.769C86.9377 126.796 86.6846 126.837 86.4289 126.859C85.8314 126.911 85.6783 126.928 85.4444 126.965C85.339 126.98 85.0561 127.009 84.8155 127.026C84.5749 127.044 84.2795 127.084 84.1591 127.116C84.0387 127.148 83.7927 127.181 83.6122 127.189C83.4318 127.197 83.0872 127.231 82.8465 127.264C82.6059 127.296 82.2894 127.331 82.1434 127.343C81.9974 127.353 81.7512 127.378 81.5964 127.396C81.4417 127.414 81.1059 127.442 80.8502 127.457C80.5944 127.473 80.207 127.51 79.9889 127.542C79.7708 127.573 79.5434 127.583 79.4835 127.564C79.4235 127.547 79.3434 127.549 79.3057 127.575C79.2677 127.598 78.9661 127.625 78.6352 127.632C77.3871 127.661 77.1897 127.674 77.1298 127.734C77.0862 127.777 77.0061 127.779 76.8536 127.741C76.7084 127.705 76.6166 127.706 76.5705 127.744C76.485 127.813 76.1513 127.838 76.0232 127.784C75.9703 127.761 75.8349 127.761 75.7224 127.781C75.6098 127.802 75.2839 127.829 74.9981 127.839C74.7124 127.849 74.1463 127.874 73.7402 127.895C73.3341 127.915 72.6823 127.931 72.2917 127.929C71.9012 127.926 71.5534 127.946 71.519 127.976C71.4795 128.008 71.4056 128.008 71.3188 127.976C71.2431 127.947 71.1676 127.937 71.1513 127.953C71.1358 127.968 70.9539 127.979 70.7492 127.976C70.1294 127.965 70.0069 127.965 69.6748 127.981C69.4994 127.988 69.3465 127.986 69.3352 127.976L69.3332 127.984ZM69.9098 123.13C70.7671 123.112 71.6409 123.088 71.8514 123.077C72.062 123.067 72.5789 123.046 73 123.031C73.4211 123.016 73.8518 122.99 73.9571 122.974C74.0623 122.959 74.3701 122.932 74.6408 122.916C75.1656 122.885 75.6408 122.851 76.1722 122.807C76.4934 122.78 76.621 122.777 76.8695 122.791C76.9372 122.796 77.1403 122.781 77.3207 122.757C77.6179 122.72 78.0273 122.686 78.5513 122.656C78.6565 122.651 78.7715 122.627 78.8066 122.606C78.8418 122.585 78.9601 122.58 79.0698 122.598C79.1794 122.616 79.2985 122.606 79.3341 122.578C79.3698 122.549 79.5222 122.531 79.6726 122.539C79.823 122.546 80.1097 122.521 80.3098 122.481C80.5098 122.442 80.879 122.399 81.1302 122.385C81.3813 122.372 81.7099 122.346 81.8603 122.329C82.0107 122.311 82.2515 122.288 82.3953 122.276C82.5393 122.264 82.6886 122.229 82.7273 122.197C82.7661 122.165 82.87 122.139 82.9581 122.138C83.123 122.138 83.4043 122.11 83.5011 122.084C83.5311 122.077 83.6097 122.074 83.6753 122.079C83.7409 122.084 83.9871 122.061 84.2222 122.027C84.4574 121.993 84.7852 121.953 84.9506 121.937C85.116 121.922 85.2811 121.886 85.3174 121.856C85.3536 121.826 85.4029 121.814 85.4267 121.829C85.45 121.844 85.6794 121.821 85.935 121.781C86.1908 121.74 86.6932 121.681 87.0516 121.65C87.4101 121.619 87.7386 121.564 87.7817 121.529C87.8249 121.494 87.9293 121.47 88.014 121.477C88.0985 121.482 88.2375 121.461 88.3231 121.429C88.4086 121.396 88.5953 121.36 88.7383 121.35C88.8812 121.34 89.029 121.312 89.0665 121.289C89.1039 121.266 89.2086 121.241 89.2988 121.235C89.5923 121.214 89.8949 121.167 90.1738 121.099C90.3242 121.062 90.4635 121.037 90.4833 121.042C90.5474 121.06 91.3527 120.894 91.4484 120.845C91.4993 120.819 91.707 120.78 91.9097 120.759C92.1126 120.739 92.2898 120.703 92.3037 120.681C92.3167 120.658 92.4471 120.636 92.5914 120.631C92.7356 120.626 92.8907 120.613 92.9358 120.602C92.9811 120.592 93.0984 120.563 93.1968 120.541C93.2952 120.518 93.389 120.478 93.405 120.453C93.4205 120.427 93.5278 120.406 93.642 120.406C93.8247 120.406 94.0325 120.359 94.3032 120.257C94.3484 120.239 94.4084 120.232 94.4366 120.239C94.4647 120.247 94.588 120.216 94.71 120.171C94.8322 120.127 95.0551 120.075 95.2056 120.055C95.3559 120.034 95.5036 119.999 95.5337 119.977C95.5983 119.929 96.1418 119.816 96.4884 119.78C96.6225 119.765 96.77 119.721 96.8165 119.68C96.863 119.639 97.0486 119.588 97.2292 119.566C97.4098 119.546 97.582 119.512 97.6121 119.492C97.7268 119.416 98.0786 119.319 98.1287 119.35C98.1574 119.368 98.4346 119.298 98.7443 119.196C99.0541 119.094 99.4183 118.993 99.5537 118.972C99.689 118.951 99.8613 118.902 99.9365 118.863C100.112 118.772 100.555 118.642 100.852 118.595C100.98 118.575 101.097 118.538 101.112 118.513C101.128 118.488 101.245 118.453 101.372 118.434C101.627 118.396 102.129 118.234 102.497 118.072C102.627 118.015 102.812 117.955 102.908 117.938C103.003 117.923 103.167 117.87 103.272 117.823C103.461 117.74 103.616 117.694 104.093 117.584C104.229 117.553 104.368 117.504 104.404 117.476C104.439 117.448 104.55 117.415 104.649 117.402C104.748 117.39 104.896 117.331 104.979 117.27C105.061 117.21 105.179 117.161 105.241 117.161C105.303 117.161 105.434 117.129 105.531 117.089C105.628 117.049 105.796 117 105.906 116.979C106.016 116.959 106.136 116.906 106.173 116.862C106.209 116.819 106.287 116.783 106.345 116.783C106.402 116.783 106.516 116.736 106.598 116.678C106.679 116.621 106.967 116.521 107.238 116.456C107.509 116.391 107.779 116.297 107.84 116.245C107.955 116.147 108.324 116.025 108.509 116.025C108.57 116.025 108.65 115.989 108.687 115.944C108.725 115.9 108.794 115.863 108.841 115.863C108.888 115.863 109.026 115.819 109.148 115.765C109.271 115.711 109.504 115.624 109.667 115.57C109.83 115.517 110.113 115.406 110.296 115.322C110.479 115.239 110.678 115.158 110.738 115.142C110.993 115.075 111.346 114.93 111.426 114.858C111.474 114.816 111.587 114.773 111.677 114.763C111.768 114.752 111.914 114.707 112.001 114.663C112.26 114.532 112.631 114.368 112.967 114.236C113.14 114.168 113.281 114.097 113.281 114.077C113.281 114.024 113.544 113.916 113.672 113.916C113.734 113.916 113.85 113.882 113.929 113.839C114.009 113.797 114.112 113.749 114.157 113.732C114.202 113.714 114.275 113.679 114.321 113.652C114.366 113.626 114.464 113.58 114.539 113.551C114.862 113.426 115.394 113.186 115.469 113.13C115.515 113.097 115.748 112.975 115.989 112.861C116.229 112.746 116.435 112.632 116.445 112.608C116.455 112.585 116.509 112.564 116.565 112.564C116.62 112.564 116.681 112.538 116.7 112.51C116.718 112.48 116.778 112.456 116.832 112.456C116.887 112.456 116.99 112.411 117.062 112.356C117.134 112.301 117.266 112.238 117.356 112.217C117.446 112.196 117.582 112.137 117.657 112.088C117.886 111.937 118.268 111.74 118.57 111.616C118.696 111.565 118.812 111.489 118.828 111.448C118.844 111.407 118.906 111.374 118.965 111.374C119.024 111.374 119.087 111.351 119.104 111.324C119.122 111.296 119.224 111.245 119.333 111.209C119.581 111.128 120.173 110.783 120.173 110.719C120.173 110.692 120.225 110.671 120.29 110.671C120.411 110.671 120.774 110.474 120.774 110.408C120.774 110.387 120.842 110.341 120.925 110.306C121.008 110.271 121.112 110.218 121.157 110.189C121.338 110.072 121.789 109.833 121.829 109.833C121.853 109.833 121.89 109.806 121.911 109.774C121.932 109.742 122.024 109.679 122.114 109.633C122.671 109.353 122.865 109.236 122.909 109.154C122.937 109.103 123.042 109.046 123.142 109.027C123.243 109.009 123.376 108.947 123.437 108.89C123.498 108.834 123.644 108.739 123.761 108.679C123.878 108.62 124.029 108.52 124.096 108.457C124.162 108.395 124.273 108.319 124.342 108.289C124.476 108.231 124.616 108.143 125.01 107.872C125.15 107.775 125.294 107.696 125.331 107.696C125.367 107.696 125.428 107.647 125.465 107.588C125.503 107.528 125.574 107.48 125.622 107.48C125.707 107.48 126.055 107.231 126.513 106.844C126.628 106.748 126.749 106.669 126.783 106.669C126.817 106.669 126.845 106.643 126.845 106.613C126.845 106.583 126.909 106.534 126.988 106.504C127.115 106.456 127.23 106.367 127.558 106.065C127.611 106.016 127.704 105.96 127.765 105.941C127.826 105.923 127.974 105.816 128.095 105.706C128.215 105.596 128.45 105.408 128.617 105.289C128.784 105.17 128.936 105.03 128.953 104.978C128.972 104.926 129.032 104.884 129.09 104.884C129.147 104.884 129.275 104.794 129.373 104.684C129.604 104.426 129.868 104.181 129.914 104.181C129.935 104.181 130.135 103.998 130.36 103.775C130.586 103.552 130.798 103.369 130.831 103.369C130.865 103.369 130.892 103.347 130.892 103.318C130.892 103.29 131.133 103.025 131.426 102.729C132.004 102.146 132.071 102.072 132.393 101.666C132.511 101.517 132.662 101.347 132.729 101.287C132.796 101.228 132.919 101.057 133.002 100.909C133.085 100.76 133.224 100.565 133.31 100.476C133.397 100.387 133.512 100.265 133.566 100.205C133.692 100.066 133.985 99.5613 134.249 99.0294C134.363 98.7992 134.476 98.5986 134.501 98.5838C134.524 98.5684 134.561 98.4897 134.581 98.4075C134.602 98.3254 134.693 98.071 134.784 97.8421L134.951 97.4261L134.773 97.1805C134.675 97.0454 134.543 96.9189 134.48 96.8993C134.417 96.8789 134.255 96.7672 134.119 96.6494C133.984 96.5316 133.799 96.398 133.709 96.3521C133.619 96.3063 133.533 96.2539 133.518 96.2358C133.481 96.1916 133.205 96.0354 132.977 95.9293C132.874 95.882 132.555 95.7292 132.266 95.5897C131.977 95.4501 131.556 95.2785 131.33 95.2082C131.104 95.138 130.827 95.047 130.714 95.0061C130.6 94.9652 130.467 94.9318 130.417 94.9318C130.367 94.9318 130.285 94.8948 130.235 94.8495C130.115 94.7427 129.213 94.4984 128.377 94.3464C128.211 94.3162 128.002 94.2626 127.912 94.2268C127.63 94.1151 127.414 94.0676 126.572 93.9307C126.466 93.9128 126.153 93.8491 125.876 93.7875L125.372 93.6754L125.124 93.819C124.988 93.8979 124.876 93.9861 124.876 94.0144C124.876 94.0428 124.84 94.0663 124.796 94.0663C124.752 94.0663 124.669 94.1164 124.611 94.178C124.553 94.2393 124.434 94.3305 124.347 94.3809C123.706 94.7487 123.564 94.8399 123.564 94.883C123.564 94.9098 123.526 94.932 123.479 94.932C123.433 94.932 123.328 94.9943 123.246 95.0707C123.165 95.1471 123.032 95.2443 122.951 95.287C122.87 95.3296 122.689 95.4436 122.549 95.5404C122.272 95.7318 122.265 95.7359 121.964 95.8791C121.851 95.9328 121.758 96.0033 121.758 96.0358C121.758 96.0682 121.607 96.1661 121.424 96.253C121.241 96.3399 121.079 96.4433 121.063 96.4829C121.048 96.5226 121.001 96.5547 120.959 96.5547C120.869 96.5547 120.684 96.6519 120.528 96.7801C120.299 96.969 119.835 97.254 119.54 97.3876C119.371 97.464 119.139 97.6 119.025 97.6897C118.91 97.7794 118.792 97.8527 118.762 97.8527C118.732 97.8527 118.693 97.8893 118.676 97.934C118.658 97.9787 118.613 98.0158 118.574 98.0163C118.536 98.0163 118.443 98.0651 118.368 98.1234C118.293 98.1816 118.192 98.2296 118.144 98.2304C118.096 98.2304 118.012 98.2802 117.957 98.3398C117.903 98.3993 117.826 98.4479 117.787 98.4479C117.748 98.4479 117.671 98.4936 117.618 98.5493C117.564 98.605 117.458 98.6692 117.383 98.6917C117.308 98.7147 117.181 98.778 117.101 98.8335C117.021 98.8892 116.942 98.9347 116.926 98.9347C116.911 98.9347 116.79 99.0036 116.661 99.0877C116.532 99.172 116.348 99.2714 116.252 99.309C116.156 99.3465 116.066 99.4084 116.051 99.4465C116.036 99.4846 115.956 99.5328 115.872 99.5535C115.788 99.574 115.612 99.6627 115.482 99.7498C115.351 99.8369 115.229 99.9082 115.211 99.9082C115.192 99.9082 115.138 99.9417 115.09 99.9829C115.043 100.024 114.844 100.143 114.648 100.247C114.014 100.587 113.746 100.739 113.718 100.78C113.702 100.803 113.616 100.837 113.526 100.858C113.436 100.878 113.326 100.927 113.281 100.963C113.236 101 113.11 101.071 113.001 101.121C112.892 101.171 112.757 101.254 112.7 101.307C112.644 101.359 112.314 101.54 111.968 101.709C111.404 101.986 111.193 102.094 110.929 102.243C110.884 102.268 110.737 102.343 110.603 102.41C110.469 102.477 110.315 102.574 110.261 102.626C110.208 102.678 110.112 102.721 110.05 102.721C109.988 102.721 109.822 102.8 109.681 102.896C109.54 102.992 109.281 103.138 109.105 103.221C108.928 103.303 108.719 103.416 108.64 103.47C108.365 103.659 107.859 103.911 107.754 103.911C107.695 103.911 107.648 103.931 107.648 103.954C107.648 103.977 107.555 104.029 107.442 104.068C107.33 104.108 107.102 104.216 106.937 104.309C106.771 104.402 106.476 104.547 106.281 104.631C106.086 104.714 105.889 104.815 105.843 104.855C105.798 104.894 105.577 105.004 105.352 105.098C105.126 105.192 104.9 105.306 104.849 105.352C104.798 105.398 104.73 105.42 104.698 105.4C104.666 105.38 104.639 105.39 104.639 105.423C104.639 105.455 104.605 105.48 104.563 105.48C104.521 105.48 104.337 105.554 104.154 105.643C103.972 105.733 103.766 105.831 103.697 105.861C103.629 105.891 103.464 105.975 103.332 106.049C103.199 106.123 103.048 106.184 102.997 106.184C102.945 106.184 102.872 106.22 102.834 106.265C102.797 106.309 102.732 106.346 102.69 106.346C102.622 106.346 102.545 106.378 102.288 106.514C101.973 106.68 101.626 106.832 101.559 106.832C101.516 106.832 101.45 106.869 101.412 106.913C101.375 106.958 101.309 106.995 101.266 106.995C101.16 106.995 100.716 107.197 100.674 107.265C100.656 107.295 100.596 107.319 100.542 107.319C100.488 107.319 100.328 107.38 100.187 107.454C100.046 107.529 99.897 107.59 99.857 107.59C99.8169 107.59 99.5875 107.687 99.3471 107.806C99.1068 107.925 98.881 108.022 98.8456 108.022C98.8102 108.022 98.6903 108.07 98.579 108.127C98.3413 108.251 98.1329 108.339 97.6111 108.538C97.4005 108.618 97.1239 108.729 96.9964 108.785C96.8687 108.842 96.7458 108.888 96.7225 108.888C96.6992 108.888 96.5698 108.945 96.4347 109.015C96.2996 109.085 96.1152 109.16 96.025 109.182C95.9348 109.202 95.8208 109.256 95.772 109.3C95.7232 109.343 95.6617 109.373 95.6353 109.366C95.5384 109.341 95.2437 109.437 95.1436 109.526C95.0868 109.576 94.893 109.665 94.7124 109.722C94.532 109.779 94.3609 109.846 94.3323 109.871C94.3036 109.896 94.2299 109.916 94.1682 109.917C94.1064 109.917 94.0082 109.955 93.9498 109.998C93.8914 110.042 93.8023 110.077 93.7514 110.077C93.7008 110.077 93.6284 110.114 93.5912 110.158C93.5537 110.203 93.4907 110.24 93.4514 110.24C93.4119 110.24 93.3103 110.268 93.2256 110.302C93.1408 110.337 93.0408 110.36 93.0033 110.354C92.9656 110.349 92.9349 110.369 92.9349 110.399C92.9349 110.431 92.8956 110.456 92.8475 110.456C92.7995 110.456 92.6703 110.495 92.5604 110.543C92.0403 110.768 91.5017 110.969 91.1848 111.056C91.0494 111.093 90.8998 111.156 90.8523 111.195C90.8048 111.235 90.7252 111.267 90.6751 111.267C90.6249 111.267 90.4177 111.337 90.2145 111.422C90.0111 111.507 89.7463 111.606 89.626 111.642C89.5056 111.678 89.3581 111.728 89.2979 111.753C88.8396 111.945 88.3362 112.133 88.2762 112.135C88.2364 112.135 88.1056 112.183 87.9853 112.241C87.8648 112.298 87.7125 112.346 87.6466 112.347C87.5808 112.347 87.5115 112.373 87.4929 112.403C87.4748 112.433 87.4175 112.457 87.3666 112.457C87.3157 112.458 87.2105 112.491 87.1327 112.531C87.055 112.571 86.8458 112.647 86.6678 112.7C86.4898 112.753 86.172 112.856 85.9614 112.929C85.7509 113.002 85.5386 113.07 85.4897 113.079C85.4409 113.09 85.2776 113.15 85.1272 113.214C84.9768 113.278 84.8144 113.336 84.7665 113.343C84.7184 113.351 84.6621 113.373 84.6412 113.393C84.6205 113.414 84.5518 113.431 84.4892 113.431C84.4264 113.431 84.1954 113.504 83.9756 113.592C83.7557 113.681 83.559 113.749 83.5381 113.743C83.4919 113.731 82.3895 114.072 82.2567 114.14C82.2045 114.166 82.1109 114.188 82.0489 114.188C81.9869 114.188 81.8386 114.235 81.7195 114.292C81.5327 114.381 81.1616 114.478 80.9843 114.484C80.9543 114.484 80.9174 114.499 80.9024 114.518C80.8869 114.536 80.6535 114.617 80.3828 114.698C80.1121 114.779 79.8177 114.878 79.7287 114.918C79.6396 114.959 79.5473 114.98 79.5236 114.965C79.5003 114.95 79.4804 114.963 79.4804 114.993C79.4804 115.023 79.4373 115.047 79.3848 115.047C79.2548 115.047 78.7299 115.177 78.1679 115.348C77.9123 115.426 77.543 115.537 77.3475 115.595C76.2326 115.922 75.5187 116.141 75.4962 116.163C75.4833 116.176 75.4363 116.161 75.3942 116.126C75.3345 116.077 75.3213 116.08 75.3345 116.139C75.3448 116.181 75.3138 116.218 75.2691 116.221C75.2239 116.223 75.1503 116.241 75.105 116.261C75.0598 116.281 74.9123 116.318 74.7769 116.345C74.6415 116.372 74.3216 116.459 74.0659 116.538C73.8103 116.617 73.5641 116.692 73.5189 116.705C73.3959 116.739 72.4726 116.988 72.3157 117.03C72.2405 117.05 71.982 117.124 71.7414 117.194C71.1099 117.379 70.4545 117.541 70.3372 117.541C70.2814 117.541 70.193 117.561 70.1408 117.589C70.0202 117.65 69.0085 117.925 68.7892 117.956C68.6983 117.969 68.4822 118.027 68.3091 118.084C68.136 118.142 67.9497 118.19 67.8949 118.19C67.8402 118.19 67.4527 118.273 67.0337 118.375C66.6148 118.478 66.1244 118.589 65.9439 118.624C65.7635 118.658 65.4439 118.733 65.2339 118.79C65.0239 118.846 64.789 118.892 64.7116 118.892C64.6344 118.892 64.5478 118.916 64.5191 118.943C64.4905 118.971 64.3687 119.005 64.2484 119.019C64.128 119.032 63.8697 119.081 63.6741 119.126C62.6399 119.362 62.4366 119.406 62.3615 119.41C62.3163 119.412 62.1563 119.442 62.006 119.476C61.8556 119.511 61.6095 119.562 61.4591 119.591C61.3087 119.619 61.0871 119.669 60.9668 119.701C60.6977 119.773 59.8507 119.964 59.5175 120.028C59.3821 120.053 59.0621 120.126 58.8064 120.188C58.5506 120.251 58.1939 120.316 58.0134 120.333C57.8328 120.351 57.6619 120.386 57.6333 120.413C57.6046 120.44 57.5186 120.462 57.4418 120.463C57.3651 120.463 57.0685 120.514 56.7828 120.575C56.0262 120.734 55.5124 120.83 55.224 120.865C55.0915 120.88 54.2351 121.037 53.8567 121.114C53.7063 121.145 53.4355 121.184 53.2551 121.2C53.0744 121.216 52.8987 121.253 52.8643 121.28C52.8299 121.308 52.7806 121.326 52.755 121.32C52.7292 121.315 52.6713 121.322 52.6263 121.34C52.3348 121.451 50.3927 121.755 48.9619 121.914C48.6761 121.946 48.3008 121.987 48.1278 122.007C47.9549 122.027 47.8133 122.065 47.8133 122.093C47.8133 122.122 47.8637 122.129 47.9252 122.109C47.9867 122.088 48.0694 122.101 48.1087 122.132C48.1479 122.164 48.2391 122.19 48.3112 122.19C48.566 122.187 48.6623 122.2 48.7705 122.244C48.8307 122.269 49.2613 122.329 49.7276 122.379C50.1939 122.428 50.7171 122.492 50.8904 122.522C51.0638 122.551 51.231 122.559 51.2622 122.539C51.2935 122.521 51.3609 122.521 51.4121 122.542C51.5048 122.58 52.2138 122.63 52.5654 122.624C52.6672 122.621 52.7781 122.642 52.8114 122.669C52.845 122.696 53.18 122.735 53.556 122.756C53.932 122.776 54.3628 122.802 54.5132 122.813C54.6636 122.823 55.009 122.842 55.2808 122.852C55.5526 122.863 55.799 122.885 55.8284 122.903C55.8579 122.921 56.1992 122.939 56.587 122.942C56.9749 122.944 57.3472 122.962 57.4144 122.978C57.4816 122.996 57.5524 122.983 57.5721 122.952C57.5927 122.919 57.6566 122.913 57.7284 122.937C57.7951 122.96 57.9798 122.975 58.139 122.97C58.2981 122.965 58.4396 122.981 58.4533 123.002C58.474 123.034 59.985 123.076 60.5431 123.06C60.6108 123.058 60.6969 123.055 60.7346 123.055C60.7721 123.055 61.1229 123.065 61.514 123.078C61.905 123.091 63.3415 123.114 64.7062 123.129C66.0708 123.144 67.1947 123.162 67.2037 123.171C67.2114 123.182 67.4745 123.181 67.7854 123.174C68.0963 123.166 69.0521 123.145 69.9094 123.127L69.9098 123.13ZM46.8823 121.731C46.9893 121.628 47.1312 121.535 47.1977 121.525C47.2644 121.515 47.3377 121.488 47.3613 121.465C47.4685 121.358 48.0969 121.158 50.029 120.616C50.3599 120.524 50.6798 120.426 50.74 120.4C50.8002 120.374 51.1201 120.277 51.451 120.185C51.7819 120.093 52.311 119.936 52.6269 119.835C53.1466 119.668 53.9175 119.459 55.7444 118.989C56.7045 118.741 57.1012 118.636 57.5493 118.511C57.7749 118.447 58.0456 118.376 58.1509 118.352C58.4628 118.281 59.4841 118.016 59.5729 117.984C59.6181 117.969 59.6796 117.949 59.7096 117.943C59.7396 117.938 59.7765 117.928 59.7915 117.92C59.807 117.913 59.8804 117.897 59.9556 117.885C60.0308 117.872 60.1907 117.826 60.3111 117.783C60.4315 117.739 60.6914 117.666 60.8889 117.621C61.0863 117.576 61.354 117.503 61.4837 117.458C61.6134 117.412 61.7903 117.375 61.8767 117.375C61.9633 117.375 62.0338 117.355 62.0338 117.328C62.0338 117.302 62.2245 117.243 62.4577 117.197C62.6908 117.151 62.98 117.086 63.1003 117.052C63.2208 117.018 63.4299 116.966 63.5653 116.936C63.7006 116.906 63.8606 116.861 63.9208 116.835C64.0941 116.761 64.5345 116.638 65.0967 116.507C65.3824 116.441 65.6639 116.362 65.7222 116.333C65.7803 116.303 65.9157 116.268 66.023 116.253C66.1302 116.241 66.2426 116.208 66.2726 116.184C66.3026 116.161 66.4258 116.125 66.5461 116.105C66.6665 116.084 66.8019 116.055 66.8469 116.037C66.9435 116.001 66.9587 115.997 67.3031 115.918C67.4486 115.885 67.6456 115.826 67.7406 115.787C67.8357 115.747 68.0118 115.697 68.1322 115.675C68.2526 115.652 68.3789 115.612 68.4131 115.584C68.4472 115.556 68.632 115.499 68.8233 115.459C69.0148 115.418 69.2821 115.347 69.4174 115.301C69.9861 115.109 71.1256 114.768 71.2378 114.756C71.3045 114.748 71.4084 114.717 71.4683 114.687C71.6662 114.586 72.6374 114.292 72.7744 114.292C72.8483 114.292 72.9167 114.274 72.9268 114.252C72.9527 114.195 73.7981 113.914 73.9421 113.914C74.0067 113.914 74.0739 113.891 74.091 113.864C74.1091 113.836 74.201 113.796 74.2974 113.776C74.3938 113.755 74.5103 113.719 74.5566 113.696C74.6026 113.673 74.8127 113.605 75.0233 113.545C75.4267 113.431 76.4782 113.079 76.6641 112.997C76.7243 112.97 76.8473 112.934 76.9375 112.916C77.1137 112.882 77.1654 112.867 77.293 112.815C77.4765 112.74 77.7049 112.651 77.7306 112.646C77.953 112.598 79.21 112.175 79.4534 112.067C79.5984 112.003 80.8905 111.56 81.3403 111.42C81.5359 111.359 81.7697 111.277 81.8599 111.238C81.9501 111.199 82.147 111.125 82.2974 111.073C82.4478 111.021 82.5955 110.96 82.6256 110.939C82.6558 110.918 82.7543 110.88 82.8445 110.856C83.0489 110.802 83.031 110.808 83.2273 110.728C83.3175 110.691 83.4625 110.647 83.5493 110.629C83.6362 110.611 83.849 110.53 84.0222 110.447C84.1953 110.364 84.4812 110.256 84.6573 110.206C84.8335 110.156 85.1074 110.057 85.2662 109.986C85.4251 109.915 85.5792 109.857 85.6088 109.857C85.6385 109.857 85.7055 109.834 85.7577 109.808C85.9029 109.732 86.206 109.611 86.509 109.507C86.6593 109.455 86.9055 109.357 87.0559 109.288C87.2062 109.219 87.4893 109.108 87.6848 109.041C87.8804 108.975 88.0637 108.9 88.0923 108.875C88.121 108.849 88.184 108.829 88.2324 108.829C88.2809 108.829 88.4174 108.784 88.5359 108.728C88.7501 108.628 88.9159 108.556 89.4896 108.316C89.655 108.246 89.8766 108.153 89.9819 108.108C90.1746 108.026 90.5837 107.874 90.7612 107.819C90.8139 107.804 90.8568 107.768 90.8568 107.741C90.8568 107.715 90.8899 107.694 90.9305 107.694C91.0101 107.694 91.2561 107.59 91.5787 107.421C91.6901 107.363 91.8154 107.315 91.8574 107.315C91.8995 107.315 92.0052 107.281 92.0928 107.239C92.261 107.158 93.2874 106.704 93.5643 106.588C93.6544 106.55 93.8391 106.469 93.9745 106.407C94.1099 106.346 94.5036 106.168 94.8495 106.012C95.1955 105.856 95.5339 105.693 95.6016 105.65C95.6693 105.607 95.7246 105.587 95.7246 105.605C95.7246 105.623 95.8936 105.553 96.1001 105.449C96.3066 105.345 96.4896 105.26 96.5065 105.26C96.5763 105.26 97.2534 104.929 97.284 104.88C97.3021 104.851 97.3742 104.827 97.4439 104.827C97.5137 104.827 97.5995 104.792 97.6344 104.751C97.6695 104.709 97.7646 104.659 97.8463 104.639C97.9276 104.618 98.1133 104.53 98.2587 104.442C98.4042 104.354 98.601 104.267 98.6962 104.249C98.7916 104.231 98.9311 104.175 99.0062 104.124C99.1465 104.03 100.283 103.48 100.799 103.256C100.958 103.187 101.116 103.097 101.15 103.056C101.201 102.996 101.52 102.827 101.631 102.802C101.72 102.782 102.341 102.465 102.479 102.369C102.569 102.307 102.705 102.229 102.78 102.196C103.066 102.071 103.197 102.005 103.409 101.881C103.529 101.81 103.671 101.751 103.724 101.748C103.776 101.746 103.819 101.72 103.819 101.69C103.819 101.66 103.856 101.636 103.901 101.636C103.946 101.636 103.983 101.61 103.983 101.581C103.983 101.552 104.029 101.527 104.085 101.527C104.142 101.527 104.418 101.39 104.701 101.223C104.983 101.055 105.312 100.872 105.432 100.817C105.553 100.762 105.848 100.609 106.089 100.477C106.7 100.142 107.187 99.9047 107.26 99.9047C107.294 99.9047 107.337 99.8682 107.354 99.8235C107.372 99.7788 107.42 99.7424 107.462 99.7424C107.504 99.7424 107.538 99.722 107.538 99.6965C107.538 99.6709 107.649 99.6052 107.784 99.55C107.92 99.4948 108.03 99.4292 108.03 99.4039C108.03 99.3783 108.104 99.3325 108.194 99.3014C108.285 99.2702 108.358 99.2247 108.358 99.1999C108.358 99.1744 108.488 99.0896 108.646 99.0096C109.199 98.7292 109.374 98.6327 109.454 98.5642C109.498 98.5261 109.645 98.4385 109.781 98.3692C110.557 97.9724 110.749 97.8642 110.873 97.7542C110.948 97.6873 111.047 97.6321 111.093 97.6313C111.138 97.6313 111.237 97.5825 111.312 97.5243C111.387 97.466 111.479 97.418 111.517 97.4172C111.555 97.4172 111.586 97.3942 111.586 97.3674C111.586 97.3405 111.69 97.2649 111.818 97.1992C111.946 97.1336 112.063 97.0641 112.078 97.0449C112.093 97.027 112.222 96.9537 112.365 96.8847C112.508 96.8157 112.625 96.7368 112.625 96.7089C112.625 96.6813 112.673 96.6586 112.731 96.6586C112.789 96.6586 112.851 96.6355 112.868 96.6092C112.886 96.5821 113.011 96.506 113.149 96.4401C113.287 96.3742 113.412 96.2868 113.428 96.2461C113.444 96.2052 113.491 96.172 113.534 96.172C113.576 96.172 113.732 96.0877 113.88 95.9844C114.028 95.8812 114.213 95.7813 114.29 95.7621C114.368 95.7417 114.449 95.6967 114.471 95.6591C114.494 95.6218 114.614 95.5396 114.74 95.4767C114.866 95.4139 114.984 95.3377 115.003 95.3073C115.021 95.2771 115.081 95.2523 115.134 95.2523C115.187 95.2523 115.327 95.1724 115.445 95.0748C115.563 94.9772 115.721 94.8665 115.797 94.8287C116.145 94.6544 116.276 94.5762 116.462 94.4318C116.573 94.3464 116.773 94.2284 116.908 94.1695C117.042 94.1107 117.166 94.0258 117.184 93.9814C117.202 93.9367 117.253 93.9001 117.299 93.9001C117.345 93.9001 117.383 93.8771 117.383 93.8497C117.383 93.8219 117.437 93.7823 117.503 93.7616C117.568 93.7411 117.735 93.6466 117.872 93.5521C118.009 93.4576 118.263 93.3006 118.436 93.2035C118.608 93.1064 118.75 93.0047 118.75 92.9776C118.75 92.9505 118.81 92.9135 118.885 92.8951C118.958 92.8772 119.048 92.8276 119.083 92.7859C119.135 92.7241 119.118 92.7093 118.989 92.706C118.903 92.7034 118.783 92.6907 118.723 92.6786C118.663 92.6659 118.06 92.6148 117.383 92.5649C116.206 92.4786 114.255 92.4492 113.294 92.5038C113.046 92.5192 112.843 92.5243 112.843 92.5166C112.843 92.509 112.83 92.4671 112.812 92.4229C112.789 92.3641 112.865 92.3112 113.096 92.2261C113.269 92.162 113.436 92.0935 113.469 92.0736C113.501 92.0531 113.551 92.0332 113.581 92.0281C113.655 92.0153 114.253 91.7986 114.457 91.7107C114.547 91.6719 114.756 91.5947 114.921 91.5398C115.087 91.4846 115.24 91.4154 115.262 91.3855C115.286 91.3558 115.303 91.3505 115.304 91.3727C115.304 91.3957 115.347 91.3931 115.4 91.365C115.453 91.3372 115.573 91.3024 115.666 91.2878C115.76 91.2725 115.883 91.237 115.94 91.2071C115.996 91.1772 116.314 91.0895 116.644 91.0124C116.975 90.9349 117.32 90.8483 117.41 90.8197C117.5 90.7911 117.697 90.7517 117.848 90.7323C117.998 90.7119 118.17 90.6866 118.231 90.674C118.291 90.6613 118.524 90.6283 118.75 90.6005C118.976 90.5726 119.443 90.5139 119.789 90.4702C120.515 90.3784 120.898 90.3485 122.596 90.2509C122.788 90.2407 122.952 90.1985 123.01 90.1461C123.063 90.0986 123.136 90.0598 123.17 90.0598C123.205 90.0598 123.265 90.011 123.302 89.9517C123.34 89.8921 123.393 89.8436 123.421 89.8436C123.469 89.8436 123.801 89.6115 124.097 89.3704C124.18 89.3034 124.267 89.2488 124.291 89.2488C124.335 89.2487 125.047 88.7012 125.203 88.5466C125.25 88.5001 125.46 88.349 125.67 88.211C125.88 88.0728 126.224 87.812 126.434 87.6313C126.645 87.4507 126.916 87.2382 127.036 87.1591C127.157 87.0802 127.428 86.8547 127.639 86.6582C127.851 86.4617 128.134 86.2295 128.268 86.1421C128.403 86.0547 128.589 85.9085 128.681 85.8176C128.774 85.7266 128.977 85.5453 129.133 85.4151C129.289 85.2847 129.509 85.088 129.621 84.9777C129.733 84.8673 129.892 84.7347 129.974 84.6824C130.055 84.6303 130.135 84.5473 130.151 84.4977C130.167 84.4484 130.291 84.3349 130.426 84.2455C130.561 84.1563 130.686 84.0405 130.704 83.9886C130.722 83.9364 130.756 83.894 130.782 83.894C130.822 83.894 130.97 83.7696 131.384 83.3905C131.429 83.3491 131.506 83.2691 131.555 83.2126C131.603 83.1561 131.895 82.8786 132.204 82.596C132.512 82.3134 132.866 81.9726 132.99 81.8388C133.379 81.4177 134.128 80.7029 134.179 80.7029C134.206 80.7029 134.228 80.6825 134.228 80.656C134.228 80.6301 134.511 80.3197 134.857 79.9663C135.203 79.6129 135.658 79.1413 135.868 78.9182C136.078 78.6951 136.392 78.3653 136.566 78.1853C136.739 78.0054 136.943 77.7682 137.018 77.6584C137.093 77.5485 137.186 77.4585 137.224 77.4583C137.263 77.4581 137.311 77.4164 137.33 77.3658C137.351 77.3152 137.491 77.1463 137.643 76.9905C137.796 76.8349 138.031 76.5814 138.166 76.4274C138.302 76.2736 138.554 76.0033 138.727 75.8271C138.9 75.6508 139.041 75.4845 139.041 75.4573C139.041 75.4302 139.164 75.2861 139.315 75.1374C139.465 74.9887 139.588 74.8454 139.588 74.8191C139.588 74.7928 139.699 74.6637 139.834 74.5325C139.969 74.4012 140.08 74.2747 140.08 74.2512C140.08 74.2282 140.204 74.0818 140.354 73.9267C140.504 73.7716 140.627 73.6277 140.627 73.6068C140.627 73.5863 140.686 73.5101 140.759 73.4388C140.831 73.3675 140.929 73.2347 140.976 73.1437C141.024 73.0527 141.125 72.9301 141.2 72.871C141.276 72.812 141.338 72.7402 141.338 72.7113C141.338 72.6579 141.582 72.3256 141.765 72.1302C141.821 72.0707 141.957 71.8841 142.067 71.7156C142.177 71.5469 142.286 71.401 142.309 71.3911C142.332 71.3809 142.424 71.2635 142.514 71.1296C142.604 70.9957 142.721 70.8544 142.774 70.8155C142.826 70.7767 142.869 70.7144 142.869 70.6771C142.869 70.5889 143.073 70.1714 143.128 70.1475C143.198 70.1171 143.455 69.7562 143.548 69.5577C143.624 69.3975 143.803 69.1219 143.95 68.9392C144.084 68.7731 144.339 68.3657 144.446 68.1485C144.513 68.0111 144.617 67.8546 144.677 67.8005C144.738 67.7466 144.865 67.5667 144.961 67.4013C145.177 67.0271 145.343 66.7831 145.459 66.6676C145.509 66.6188 145.549 66.5495 145.549 66.514C145.549 66.4782 145.656 66.3088 145.785 66.1374C145.915 65.966 146.053 65.7353 146.092 65.6247C146.158 65.4369 146.482 64.9132 146.625 64.7625C146.66 64.7257 146.731 64.5854 146.783 64.4511C146.835 64.3167 146.908 64.2068 146.946 64.2068C146.985 64.2068 147.053 64.0982 147.099 63.9653C147.145 63.8324 147.234 63.6689 147.298 63.6016C147.361 63.5344 147.473 63.357 147.547 63.2075C147.832 62.6332 148.18 62.0139 148.248 61.9621C148.287 61.9325 148.439 61.6696 148.584 61.3782C148.73 61.0868 148.87 60.8359 148.895 60.8206C148.921 60.8053 148.941 60.7511 148.941 60.7003C148.941 60.6494 149.074 60.4046 149.237 60.1564C149.401 59.9083 149.564 59.6289 149.6 59.5356C149.731 59.1995 149.877 58.9139 149.95 58.8544C149.99 58.8209 150.04 58.7291 150.06 58.6504C150.081 58.5717 150.15 58.4329 150.216 58.3423C150.282 58.2516 150.378 58.0919 150.43 57.9875C150.482 57.8829 150.549 57.7611 150.58 57.7163C150.61 57.6716 150.698 57.5014 150.775 57.3377C150.852 57.1742 150.974 56.9429 151.046 56.8239C151.119 56.7048 151.279 56.4128 151.402 56.1749C151.526 55.937 151.661 55.6813 151.702 55.607C151.811 55.4128 152.003 54.9676 152.003 54.911C152.003 54.8847 152.037 54.8351 152.079 54.8011C152.121 54.7672 152.17 54.6629 152.189 54.5699C152.207 54.4766 152.246 54.3732 152.274 54.3399C152.373 54.2221 152.673 53.6254 152.916 53.065C153.051 52.7526 153.182 52.4727 153.206 52.4429C153.232 52.4133 153.294 52.2549 153.347 52.0914C153.4 51.9279 153.489 51.7359 153.544 51.6649C153.599 51.5939 153.644 51.5017 153.644 51.46C153.644 51.4181 153.693 51.2885 153.754 51.172C153.814 51.0554 153.863 50.9123 153.863 50.8541C153.863 50.7958 153.95 50.5855 154.057 50.3866C154.164 50.1878 154.289 49.8753 154.336 49.6925C154.383 49.5096 154.441 49.3357 154.464 49.306C154.487 49.2763 154.523 49.1751 154.544 49.0813C154.564 48.9875 154.628 48.8181 154.687 48.7048C154.745 48.5916 154.793 48.4651 154.793 48.4239C154.793 48.3828 154.827 48.2844 154.87 48.2054C154.912 48.1265 154.988 47.9037 155.039 47.7103C155.204 47.0871 155.403 46.4676 155.448 46.4403C155.471 46.4249 155.508 46.2734 155.528 46.1019C155.563 45.7952 155.598 45.6506 155.828 44.8437C155.891 44.6206 155.966 44.292 155.995 44.1136C156.023 43.9352 156.086 43.5822 156.135 43.3293C156.184 43.0763 156.244 42.6748 156.269 42.4368C156.295 42.1989 156.329 41.919 156.347 41.8149C156.365 41.7106 156.391 41.5404 156.404 41.4362C156.417 41.3322 156.454 41.0644 156.486 40.8413C156.732 39.1174 156.809 35.8552 156.632 34.7024C156.443 33.4754 156.091 31.8241 155.888 31.2138C155.804 30.9608 155.667 30.5472 155.583 30.2944C155.381 29.6792 154.797 28.245 154.575 27.8161C154.518 27.7065 154.411 27.4778 154.335 27.3076C154.26 27.1374 154.128 26.894 154.041 26.7667C153.953 26.6395 153.843 26.4352 153.794 26.313C153.746 26.1906 153.594 25.9317 153.457 25.7375C153.32 25.5433 153.207 25.3656 153.207 25.3426C153.207 25.2899 152.367 24.0583 152.159 23.8051C152.074 23.7016 152.004 23.5981 152.004 23.5751C152.004 23.5089 151.217 22.4965 150.938 22.2033C150.799 22.0574 150.646 21.8729 150.597 21.7935C150.549 21.714 150.457 21.6218 150.395 21.5885C150.332 21.5553 150.084 21.3039 149.843 21.0299C149.107 20.1907 147.143 18.3065 146.917 18.2228C146.862 18.2023 146.759 18.108 146.689 18.0137C146.619 17.9192 146.421 17.747 146.249 17.631C146.077 17.515 145.816 17.3049 145.668 17.1641C145.521 17.0233 145.309 16.8471 145.197 16.7727C145.085 16.6984 144.932 16.5727 144.857 16.4933C144.781 16.4141 144.642 16.3183 144.547 16.2807C144.452 16.2431 144.263 16.1234 144.128 16.0143C143.993 15.9055 143.841 15.7941 143.791 15.7672C143.741 15.7401 143.613 15.6389 143.505 15.5423C143.398 15.4457 143.297 15.3665 143.281 15.3665C143.266 15.3665 143.149 15.2922 143.022 15.2015C142.895 15.1107 142.686 14.9904 142.557 14.9341C142.429 14.8779 142.323 14.8086 142.323 14.7805C142.323 14.7524 142.262 14.714 142.187 14.6954C142.111 14.6775 142.05 14.6364 142.05 14.606C142.05 14.5753 141.933 14.4969 141.79 14.4312C141.647 14.3655 141.444 14.2511 141.339 14.1767C141.234 14.1024 141.037 13.9866 140.901 13.9196C140.766 13.8527 140.545 13.7257 140.409 13.6377C140.274 13.5496 140.089 13.444 139.999 13.4029C139.909 13.3618 139.801 13.2879 139.76 13.2386C139.718 13.1893 139.638 13.1491 139.58 13.1491C139.523 13.1491 139.462 13.1126 139.444 13.0681C139.426 13.0234 139.358 12.9871 139.29 12.9871C139.223 12.9871 139.121 12.935 139.064 12.8711C139.006 12.8072 138.858 12.7101 138.734 12.6555C138.61 12.6005 138.478 12.519 138.44 12.474C138.403 12.4291 138.349 12.3923 138.321 12.3923C138.293 12.3923 138.136 12.3072 137.971 12.2029C137.807 12.0987 137.649 12.0136 137.62 12.0136C137.544 12.0136 137.125 11.7979 136.936 11.6611C136.846 11.5957 136.71 11.5244 136.635 11.5024C136.56 11.4794 136.203 11.322 135.842 11.1506C135.481 10.9792 135.05 10.7785 134.885 10.7049C134.424 10.4997 134.328 10.4519 134.096 10.3123C133.978 10.2412 133.793 10.1671 133.685 10.148C133.578 10.1275 133.429 10.0726 133.353 10.0235C133.204 9.92564 132.708 9.7092 132.455 9.63129C132.367 9.60421 132.279 9.55666 132.26 9.52549C132.241 9.49457 132.022 9.39825 131.774 9.31163C131.525 9.22501 131.143 9.06736 130.923 8.96134C130.703 8.8553 130.49 8.76791 130.448 8.76689C130.407 8.76689 130.274 8.71808 130.154 8.66058C130.034 8.60309 129.872 8.5553 129.796 8.55428C129.719 8.55428 129.633 8.53129 129.604 8.50343C129.576 8.47635 129.375 8.40273 129.158 8.33961C128.941 8.2765 128.749 8.20111 128.731 8.17223C128.713 8.14336 128.641 8.11989 128.571 8.11989C128.501 8.11989 128.414 8.08332 128.376 8.03885C128.339 7.99414 128.239 7.95788 128.154 7.95788C128.069 7.95788 127.984 7.93233 127.965 7.90167C127.947 7.87075 127.881 7.86076 127.821 7.87865C127.755 7.89909 127.673 7.87864 127.612 7.82319C127.518 7.73886 127.297 7.66426 126.653 7.49929C126.503 7.4607 126.158 7.35694 125.888 7.26853C125.408 7.11189 125.195 7.05338 124.52 6.89166C123.968 6.75929 123.604 6.66632 123.29 6.57724C123.124 6.53048 122.915 6.4896 122.825 6.48653C122.735 6.48397 122.612 6.44792 122.553 6.40755C122.493 6.36718 122.378 6.33419 122.297 6.33419C122.215 6.33419 121.968 6.29586 121.748 6.24884C121.273 6.1474 121.013 6.09966 120.637 6.04447C120.577 6.0368 120.486 6.01019 120.436 5.9877C120.278 5.91794 119.658 5.80526 119.584 5.83311C119.546 5.84844 119.481 5.83311 119.44 5.79861C119.399 5.76514 119.325 5.75288 119.276 5.77154C119.227 5.78942 119.156 5.78174 119.119 5.75363C119.044 5.69563 118.22 5.55943 117.957 5.56199C117.867 5.56199 117.768 5.54415 117.737 5.52013C117.706 5.49713 117.484 5.45979 117.244 5.43909C117.005 5.41865 116.784 5.3834 116.754 5.36117C116.724 5.33817 116.497 5.31898 116.249 5.31694C116.002 5.31438 115.746 5.28498 115.682 5.251C115.617 5.21676 115.492 5.20323 115.403 5.22087C115.313 5.23875 115.194 5.22851 115.136 5.19784C115.078 5.16744 114.771 5.13117 114.452 5.11737C114.133 5.10459 113.847 5.07652 113.815 5.0571C113.783 5.03666 113.496 5.01234 113.177 5.00058C112.858 4.98781 112.376 4.96483 112.105 4.94668C110.645 4.85009 110.23 4.82812 109.179 4.79209C108.743 4.77676 108.078 4.74536 107.702 4.72185C107.326 4.69885 106.962 4.69885 106.893 4.72185C106.824 4.74485 106.663 4.74484 106.537 4.71929C106.411 4.69323 105.569 4.68145 104.667 4.69346C103.764 4.70624 102.915 4.71136 102.78 4.70625C102.431 4.69348 102.43 4.69349 101.795 4.73769C101.255 4.77449 101.069 4.78009 100.906 4.76502C100.835 4.75735 100.01 4.81129 99.6348 4.84681C99.5143 4.85703 99.0345 4.88303 98.5682 4.90245C98.102 4.92289 97.659 4.95541 97.5838 4.97713C97.5086 4.99757 97.3732 5.00262 97.2829 4.98474C97.1928 4.96685 97.0328 4.96941 96.9275 4.99241C96.822 5.01541 96.4967 5.04404 96.2042 5.0586C95.9118 5.07393 95.6508 5.09821 95.6244 5.11431C95.5836 5.13986 95.2238 5.18177 94.1381 5.29011C94.0327 5.30033 93.799 5.31897 93.6185 5.33072C93.4381 5.3435 93.123 5.37978 92.9184 5.41351C92.7138 5.44724 92.5236 5.46082 92.4956 5.4437C92.4677 5.42582 92.3993 5.436 92.3437 5.46666C92.2881 5.49605 92.0353 5.5331 91.7819 5.54895C91.2875 5.57987 90.5032 5.67213 90.3638 5.71583C90.2612 5.74802 89.8631 5.80219 89.5985 5.81982C89.4934 5.82749 89.3153 5.86275 89.2031 5.8998C89.091 5.9366 88.9783 5.95425 88.953 5.93867C88.9271 5.92333 88.7664 5.94629 88.5947 5.99101C88.4231 6.03547 88.2608 6.05826 88.2342 6.04216C88.2076 6.02683 88.1174 6.03958 88.0337 6.06974C87.95 6.10117 87.6834 6.14029 87.4414 6.15639C87.1993 6.17172 86.9813 6.19803 86.9567 6.21285C86.9048 6.24453 86.7185 6.27518 86.3718 6.30917C86.03 6.34264 85.9147 6.36412 85.8441 6.4073C85.8105 6.42774 85.6511 6.45383 85.4895 6.46507C85.1854 6.48551 84.6808 6.57668 84.3482 6.66969C84.243 6.69908 84.0337 6.73231 83.8833 6.74381C83.7329 6.75403 83.5114 6.78956 83.3911 6.82048C83.2706 6.8514 83.0568 6.87698 82.9157 6.87775C82.7746 6.87775 82.6457 6.90071 82.6292 6.92703C82.6008 6.97226 82.3695 7.02873 82.0408 7.07064C81.96 7.08086 81.7876 7.11841 81.658 7.15392C81.5283 7.18944 81.3371 7.22831 81.2333 7.24058C81.1294 7.25335 81.0185 7.28377 80.9873 7.30957C80.9557 7.33538 80.8684 7.35606 80.7932 7.35555C80.5332 7.353 79.2912 7.61131 79.1797 7.68981C79.1498 7.71025 78.965 7.75778 78.7695 7.79381C78.4151 7.85897 78.2326 7.90014 77.8061 8.01078C77.6823 8.04298 77.5171 8.06905 77.439 8.06905C77.3609 8.06905 77.1668 8.1155 77.0078 8.17248C76.7517 8.26422 75.7069 8.50752 75.487 8.52658C75.4413 8.53169 75.3798 8.54958 75.3503 8.56644C75.2617 8.6201 74.8093 8.73791 74.7386 8.7259C74.7024 8.72079 74.5794 8.75476 74.4651 8.80357C74.3508 8.85263 74.174 8.90296 74.0721 8.91574C73.9703 8.92851 73.8471 8.9584 73.7986 8.98267C73.7501 9.00567 73.5506 9.05832 73.355 9.0969C73.1594 9.13549 72.933 9.20014 72.8518 9.24026C72.7706 9.28038 72.6523 9.31331 72.5888 9.31331C72.5255 9.31331 72.2595 9.38384 71.9981 9.47021C71.7366 9.55658 71.4366 9.64452 71.3313 9.66573C71.2259 9.68617 71.1153 9.72321 71.0851 9.74595C71.0551 9.76895 70.9006 9.81442 70.7417 9.84764C70.5828 9.8806 70.3983 9.94168 70.3315 9.98308C70.2646 10.0245 70.0747 10.0886 69.9092 10.1251C69.7438 10.1619 69.5442 10.2149 69.4657 10.2427C69.3871 10.2706 69.2448 10.2956 69.1492 10.2984C69.0536 10.3009 68.9627 10.324 68.9469 10.349C68.9314 10.3746 68.8754 10.3948 68.8232 10.3948C68.7707 10.3948 68.6989 10.4236 68.6632 10.4589C68.6275 10.4942 68.5549 10.5281 68.5017 10.5345C68.4105 10.5447 67.5472 10.8343 67.3113 10.933C67.102 11.0204 66.5444 11.197 66.355 11.2356C66.25 11.2561 66.1146 11.3059 66.0541 11.3443C65.9934 11.3826 65.8087 11.4567 65.6431 11.5088C65.4777 11.561 65.33 11.6195 65.315 11.6386C65.2995 11.6591 65.1276 11.7171 64.9321 11.7697C64.7365 11.8226 64.5028 11.8985 64.4125 11.9383C64.3223 11.9782 64.1377 12.039 64.0023 12.0735C63.8669 12.108 63.6947 12.1681 63.6195 12.2072C63.2334 12.408 63.0043 12.5039 62.9112 12.5039C62.8544 12.5039 62.7384 12.5392 62.6531 12.5827C62.4159 12.703 61.6667 12.9908 61.5902 12.9908C61.5528 12.9908 61.4835 13.0233 61.436 13.0629C61.3267 13.1541 60.8327 13.3362 60.7953 13.299C60.7798 13.2837 60.6276 13.3437 60.4571 13.4327C60.2866 13.5213 59.913 13.6802 59.6271 13.786C59.3412 13.8915 59.0949 13.9953 59.0798 14.0163C59.0643 14.0367 58.9171 14.1001 58.7517 14.1558C58.5863 14.2115 58.4067 14.2932 58.3527 14.3377C58.2987 14.3821 58.2042 14.4258 58.1427 14.4353C58.0812 14.4455 57.9783 14.4885 57.9142 14.5329C57.8502 14.5774 57.7623 14.6137 57.7194 14.6137C57.6762 14.6137 57.5636 14.6722 57.4688 14.7435C57.3742 14.815 57.1872 14.9047 57.0534 14.9433C56.9196 14.9819 56.7118 15.0749 56.5915 15.15C56.2643 15.3547 56.1225 15.4249 56.0364 15.4249C55.9367 15.4249 55.4341 15.676 55.3888 15.7483C55.3708 15.7787 55.3093 15.8035 55.2542 15.8035C55.1992 15.8035 55.1418 15.8339 55.1271 15.8712C55.1116 15.9083 54.9436 15.9985 54.752 16.0715C54.5606 16.1444 54.3054 16.2655 54.1851 16.3405C54.0647 16.4154 53.8819 16.5066 53.7788 16.5429C53.6757 16.5792 53.5698 16.6469 53.5437 16.6931C53.5176 16.7394 53.4527 16.7772 53.4 16.7772C53.3473 16.7772 53.2207 16.8381 53.1186 16.9124C53.0166 16.9868 52.8918 17.0476 52.8413 17.0476C52.7906 17.0476 52.7219 17.0801 52.6885 17.1199C52.6552 17.1595 52.5291 17.2244 52.4083 17.2638C52.2877 17.3031 52.1887 17.3542 52.1887 17.3772C52.1887 17.4002 52.1391 17.4347 52.0781 17.4536C52.0174 17.4715 51.8142 17.5842 51.6269 17.7015C51.4396 17.8188 51.2186 17.9409 51.1359 17.9732C51.0532 18.0053 50.9855 18.0511 50.9855 18.0747C50.9855 18.0976 50.9219 18.1334 50.8441 18.1526C50.7113 18.1855 50.6542 18.2208 50.468 18.3861C50.4261 18.4232 50.3711 18.4538 50.3458 18.4538C50.3199 18.4538 50.2142 18.5108 50.1093 18.5806C50.0047 18.6504 49.8569 18.7224 49.7811 18.7408C49.7054 18.7587 49.5945 18.8184 49.5351 18.8726C49.4754 18.9268 49.2914 19.0344 49.126 19.1118C48.9606 19.1892 48.7614 19.3101 48.6835 19.3806C48.5006 19.5459 48.2305 19.6979 48.1194 19.6979C48.0713 19.6979 48.032 19.7184 48.032 19.7429C48.032 19.7684 47.9643 19.8213 47.8816 19.8622C47.799 19.9031 47.6816 19.979 47.6211 20.0311C47.5606 20.0832 47.4247 20.1615 47.3192 20.2049C47.2138 20.2484 47.0809 20.3347 47.0243 20.3968C46.9677 20.4586 46.898 20.5095 46.8693 20.5095C46.8406 20.5095 46.7442 20.5703 46.6548 20.6447C46.5654 20.719 46.4603 20.7798 46.4212 20.7798C46.3822 20.7798 46.3194 20.8164 46.282 20.8608C46.2445 20.9055 46.1776 20.9419 46.1334 20.9419C46.0892 20.9419 45.9073 21.0515 45.7293 21.1854C45.5512 21.3192 45.3937 21.4289 45.379 21.4289C45.3635 21.4289 45.2354 21.5091 45.0925 21.6073C44.9496 21.7054 44.7587 21.8209 44.6685 21.8638C44.5783 21.9067 44.4646 21.9846 44.4161 22.037C44.3675 22.0892 44.2918 22.132 44.2481 22.132C44.2045 22.132 44.0859 22.2051 43.9849 22.2943C43.8838 22.3835 43.7748 22.4574 43.7425 22.4581C43.6846 22.4607 43.1788 22.8175 42.8655 23.0787C42.7763 23.153 42.6735 23.2138 42.6373 23.2138C42.6009 23.2138 42.4606 23.2974 42.3252 23.3996C42.1898 23.5018 42.004 23.6237 41.9124 23.6706C41.8206 23.7176 41.7018 23.8014 41.6483 23.8571C41.5948 23.9128 41.4649 24.0038 41.3594 24.0592C41.1873 24.15 40.9094 24.3321 40.7132 24.4832C40.6734 24.5139 40.5891 24.5936 40.5256 24.6605C40.462 24.7275 40.3692 24.7822 40.3191 24.7822C40.269 24.7822 40.1811 24.8333 40.124 24.8959C40.0669 24.9585 39.946 25.0471 39.8558 25.0931C39.7656 25.1391 39.5906 25.2582 39.4671 25.358C39.3436 25.4577 39.2227 25.5394 39.1983 25.5394C39.175 25.5394 39.1148 25.5752 39.0673 25.6192C38.8642 25.8062 38.5803 26.0262 38.5423 26.0262C38.5191 26.0262 38.4614 26.0712 38.4128 26.1264C38.3643 26.1816 38.2475 26.2659 38.1533 26.3137C38.0592 26.3617 37.9683 26.4363 37.9515 26.4798C37.9334 26.5232 37.8331 26.5999 37.7261 26.6502C37.6192 26.7005 37.5313 26.7619 37.5313 26.7869C37.5313 26.8124 37.4473 26.8717 37.3448 26.9198C37.2422 26.9678 37.1153 27.0542 37.0628 27.1117C37.0104 27.1692 36.9349 27.216 36.8951 27.216C36.8553 27.216 36.7825 27.2767 36.7331 27.3511C36.6838 27.4255 36.6122 27.4863 36.5737 27.4863C36.5352 27.4863 36.4897 27.5229 36.4724 27.5673C36.4543 27.612 36.4078 27.6483 36.3672 27.6483C36.3267 27.6483 36.1479 27.7822 35.9702 27.9458C35.7924 28.1094 35.6339 28.2433 35.6179 28.2433C35.6024 28.2433 35.5223 28.3041 35.4411 28.3785C35.36 28.4528 35.2662 28.5136 35.2326 28.5136C35.199 28.5136 35.0833 28.611 34.9753 28.7301C34.8672 28.8491 34.743 28.9465 34.699 28.9465C34.6551 28.9465 34.5005 29.062 34.3556 29.2034C33.9897 29.5601 33.7437 29.7578 33.6658 29.7578C33.6294 29.7578 33.5676 29.802 33.5284 29.8559C33.4891 29.9098 33.3092 30.0716 33.1287 30.2152C32.9484 30.3588 32.7812 30.509 32.7574 30.5488C32.7342 30.5886 32.6044 30.6847 32.4703 30.7627C32.3362 30.8404 32.2264 30.9224 32.2264 30.9448C32.2264 30.9678 32.1786 31.0075 32.1204 31.0343C32.062 31.0611 31.8974 31.1927 31.7543 31.3265C31.6112 31.4604 31.4066 31.6377 31.2997 31.7207C31.0214 31.9363 30.7383 32.1772 30.3795 32.5029C30.2074 32.659 30.0478 32.7869 30.0246 32.7869C30.0014 32.7869 29.8629 32.9024 29.7167 33.0438C29.5704 33.1851 29.2939 33.4271 29.1021 33.5816C28.9104 33.7362 28.5765 34.0342 28.3603 34.2441C28.144 34.4542 27.9489 34.6258 27.9266 34.6258C27.9034 34.6258 27.8083 34.705 27.7132 34.8016C27.6181 34.8982 27.3492 35.1478 27.1156 35.356C26.3956 35.998 26.057 36.3094 25.4803 36.8598C24.5375 37.7598 24.4909 37.8018 24.3643 37.8663C24.2966 37.9008 24.2413 37.9636 24.2413 38.0063C24.2413 38.0487 24.1981 38.1067 24.1457 38.1351C24.093 38.1632 23.9268 38.3137 23.7765 38.4693C23.6261 38.6249 23.3061 38.9525 23.0654 39.1974C22.8249 39.4425 22.6001 39.6762 22.5661 39.717C22.5323 39.7579 22.3625 39.913 22.1891 40.0617C22.0157 40.2104 21.8467 40.3631 21.8133 40.4009C21.78 40.4387 21.526 40.7064 21.2487 40.9958C20.9715 41.2852 20.59 41.6851 20.401 41.8844C20.2121 42.0837 19.8605 42.4518 19.6198 42.7025C19.3792 42.9531 19.0222 43.3361 18.8267 43.5535C18.6311 43.771 18.3913 44.0278 18.2935 44.1245C18.1958 44.2211 18.1157 44.3182 18.1157 44.3399C18.1157 44.3629 18.0798 44.4181 18.0361 44.4653C17.6306 44.9019 17.5127 45.0322 17.3226 45.2539C17.2022 45.3942 17.0122 45.6099 16.9002 45.7332C16.7881 45.8564 16.6958 45.9726 16.695 45.9913C16.695 46.0092 16.5961 46.1247 16.4772 46.2458C16.3581 46.3672 16.1921 46.5705 16.108 46.6978C15.9075 47.0017 15.822 47.1068 15.6408 47.2715C15.5582 47.3467 15.4905 47.4381 15.4905 47.4742C15.4905 47.5105 15.4308 47.5789 15.3579 47.6259C15.285 47.6732 15.2096 47.7612 15.1902 47.8215C15.1721 47.8818 15.1196 47.9311 15.0767 47.9311C15.0336 47.9311 14.9985 47.9747 14.9985 48.0279C14.9985 48.081 14.8982 48.2334 14.7755 48.366C14.653 48.4986 14.5168 48.6741 14.4733 48.7559C14.4296 48.8377 14.3699 48.9047 14.3407 48.9047C14.3115 48.9047 14.2875 48.9276 14.2875 48.9583C14.2875 49.0132 13.9728 49.4399 13.8235 49.5876C13.7778 49.6328 13.7406 49.7044 13.7406 49.7468C13.7406 49.7892 13.7147 49.824 13.685 49.824C13.6545 49.824 13.5884 49.909 13.5383 50.0133C13.4881 50.1173 13.4155 50.2026 13.3773 50.2026C13.339 50.2026 13.2266 50.3483 13.1277 50.5265C13.0287 50.7046 12.9196 50.8507 12.8853 50.8511C12.8509 50.8511 12.7842 50.9474 12.737 51.0642C12.6897 51.1809 12.6194 51.2967 12.5806 51.3211C12.5419 51.3466 12.4744 51.4384 12.4308 51.5278C12.3871 51.617 12.3075 51.7386 12.2538 51.7982C11.9092 52.1805 11.8273 52.2939 11.7971 52.4299C11.779 52.5137 11.7276 52.5824 11.6841 52.5824C11.6407 52.5824 11.58 52.6494 11.5493 52.7312C11.5185 52.8129 11.4635 52.9041 11.4268 52.934C11.3209 53.0199 11.1702 53.2739 11.1702 53.3665C11.1702 53.4131 11.1332 53.4651 11.0883 53.4823C11.0431 53.5002 11.0064 53.5584 11.0064 53.6131C11.0064 53.668 10.9754 53.7322 10.9374 53.756C10.8994 53.7789 10.8072 53.8903 10.7322 54.0017C10.6573 54.1132 10.5803 54.2044 10.5609 54.2047C10.5428 54.2049 10.5116 54.2617 10.494 54.3306C10.4759 54.3999 10.3754 54.5685 10.2692 54.706C10.1633 54.8432 10.0764 54.9882 10.0764 55.0278C10.0764 55.0674 10.0061 55.1844 9.92009 55.2879C9.83405 55.3914 9.74696 55.5287 9.72655 55.5929C9.70588 55.657 9.65343 55.7393 9.6095 55.7753C9.56557 55.8113 9.52967 55.8829 9.52967 55.934C9.52967 55.9854 9.47747 56.0735 9.41391 56.1303C9.35034 56.187 9.23922 56.3551 9.16687 56.5037C9.09478 56.6524 8.99506 56.8472 8.94519 56.9364C8.7824 57.2275 8.65138 57.4738 8.55637 57.6666C8.50495 57.7709 8.41995 57.9032 8.3675 57.9608C8.31479 58.0185 8.27189 58.1184 8.27189 58.1833C8.27189 58.2479 8.19747 58.3934 8.10652 58.5066C8.01556 58.6198 7.92566 58.7752 7.90679 58.8521C7.88871 58.929 7.82694 59.0498 7.77138 59.1208C7.71583 59.1918 7.67035 59.2864 7.67035 59.3311C7.67035 59.3758 7.59645 59.5312 7.50627 59.6762C7.41609 59.8214 7.34219 59.9616 7.34219 59.9881C7.34219 60.0147 7.29491 60.1299 7.23703 60.2442C7.0037 60.7058 6.79993 61.1633 6.76582 61.3018C6.74515 61.3823 6.69527 61.4765 6.65315 61.5113C6.61104 61.5458 6.57641 61.6115 6.57641 61.6569C6.57641 61.7024 6.50018 61.9002 6.40716 62.0965C6.05618 62.8365 5.8107 63.4324 5.8107 63.5444C5.8107 63.584 5.7926 63.6162 5.76935 63.6162C5.71405 63.6162 5.63317 63.8043 5.39589 64.482C5.28659 64.7941 5.1786 65.0738 5.1556 65.1036C5.13234 65.1332 5.0967 65.2515 5.07577 65.3663C5.0551 65.4811 4.99204 65.6758 4.93622 65.799C4.88041 65.9222 4.78299 66.2056 4.71994 66.4287C4.55302 67.0187 4.47006 67.2757 4.31128 67.6941C4.23351 67.8993 4.16969 68.1215 4.16969 68.1878C4.16969 68.2543 4.13301 68.3386 4.08831 68.3754C4.04361 68.4122 4.01855 68.461 4.03276 68.4837C4.04827 68.5067 4.0095 68.7045 3.94697 68.9239C3.88547 69.1431 3.79812 69.4563 3.75264 69.6199C3.70716 69.7834 3.64877 69.9904 3.62319 70.0796C3.59735 70.1688 3.54722 70.3879 3.51182 70.5664C3.47616 70.745 3.42786 70.9153 3.4046 70.945C3.38135 70.9746 3.34491 71.0843 3.32398 71.1885C3.30331 71.2925 3.25215 71.4995 3.21081 71.6483C3.08781 72.0913 2.87465 73.0711 2.77525 73.6494C2.72408 73.9469 2.66178 74.2512 2.63646 74.3256C2.61062 74.3999 2.5623 74.6433 2.52742 74.8664C2.49279 75.0895 2.42742 75.4303 2.3822 75.6237C2.33698 75.8171 2.25483 76.3281 2.19979 76.7595C2.1445 77.1908 2.07265 77.6942 2.04009 77.8781C1.97498 78.2452 1.78506 80.3914 1.70824 81.6273C1.52401 84.5914 1.60516 86.5015 2.03088 89.2037C2.14122 89.9045 2.55569 91.667 2.63346 91.7666C2.65672 91.7975 2.6942 91.8834 2.71513 91.958C2.7358 92.0323 2.78956 92.2252 2.83426 92.3864C3.13224 93.4614 4.79099 96.6059 5.50048 97.4409C5.62606 97.5886 5.80257 97.8128 5.8928 97.9391C6.2469 98.4348 6.39776 98.6306 6.72406 99.0184C6.91036 99.2399 7.13935 99.5311 7.23258 99.6651C7.32586 99.799 7.42223 99.9088 7.44704 99.9088C7.47288 99.9088 7.5584 100.008 7.63954 100.13C7.72067 100.251 8.01013 100.598 8.28252 100.9C8.5549 101.203 8.95317 101.645 9.16756 101.883C9.38203 102.121 9.67161 102.425 9.81127 102.559C9.95106 102.693 10.1829 102.936 10.3266 103.1C10.4703 103.264 10.6685 103.452 10.7669 103.519C10.8653 103.586 11.0555 103.774 11.1896 103.937C11.3237 104.099 11.5996 104.373 11.8026 104.545C12.0057 104.717 12.3965 105.071 12.6713 105.331C12.946 105.592 13.2314 105.845 13.3056 105.895C13.426 105.976 13.6441 106.158 14.0718 106.535C14.1483 106.602 14.2917 106.706 14.3907 106.766C14.4897 106.825 14.7878 107.072 15.0532 107.315C15.3185 107.557 15.7164 107.881 15.9375 108.033C16.1584 108.186 16.4802 108.438 16.6525 108.595C16.8248 108.751 17.0117 108.894 17.068 108.911C17.1244 108.929 17.2466 109.037 17.3395 109.151C17.4325 109.266 17.6061 109.407 17.7253 109.466C17.8447 109.524 18.0368 109.648 18.1526 109.742C18.7929 110.259 19.0818 110.471 19.2832 110.573C19.4065 110.635 19.6684 110.812 19.865 110.966C20.0616 111.12 20.284 111.272 20.3592 111.303C20.4344 111.335 20.6029 111.449 20.7336 111.557C20.8643 111.665 20.9873 111.754 21.0071 111.754C21.0277 111.754 21.129 111.829 21.2342 111.921C21.3396 112.012 21.5241 112.132 21.6444 112.186C21.7648 112.24 21.9479 112.347 22.0516 112.425C22.1552 112.502 22.2624 112.565 22.2898 112.565C22.3172 112.565 22.4089 112.62 22.4934 112.687C22.7107 112.859 23.1134 113.131 23.1622 113.14C23.1854 113.142 23.2234 113.15 23.2482 113.152C23.2741 113.155 23.4361 113.269 23.6103 113.403C23.7847 113.537 23.9648 113.646 24.0108 113.646C24.0568 113.646 24.1994 113.731 24.3279 113.835C24.4563 113.939 24.5852 114.025 24.6139 114.025C24.6429 114.025 24.6972 114.061 24.7346 114.106C24.7721 114.151 24.8568 114.187 24.9232 114.187C24.9896 114.187 25.0976 114.244 25.1635 114.313C25.2294 114.382 25.3997 114.495 25.5423 114.564C25.6846 114.632 25.8505 114.73 25.9106 114.779C25.9708 114.829 26.1308 114.916 26.2661 114.971C26.4015 115.027 26.5511 115.104 26.5986 115.144C26.6461 115.183 26.7154 115.215 26.7529 115.215C26.7903 115.215 26.9278 115.287 27.0589 115.377C27.1899 115.466 27.3637 115.564 27.4451 115.594C27.5265 115.625 27.6613 115.698 27.7448 115.757C27.8283 115.816 27.9249 115.864 27.9595 115.864C28.0381 115.864 28.4275 116.049 28.6454 116.19C28.8643 116.332 29.4131 116.587 29.6846 116.673C29.805 116.712 29.928 116.762 29.958 116.784C30.1025 116.894 30.5217 117.1 30.5475 117.074C30.563 117.059 30.677 117.108 30.7995 117.185C30.9219 117.261 31.0576 117.324 31.1009 117.324C31.144 117.324 31.1877 117.342 31.1978 117.365C31.2319 117.444 32.1271 117.81 32.2839 117.81C32.3699 117.81 32.4555 117.836 32.4743 117.865C32.5121 117.926 33.1748 118.243 33.2629 118.243C33.2931 118.243 33.3988 118.278 33.4975 118.321C33.9598 118.52 34.6724 118.784 34.7481 118.784C34.7943 118.784 34.8799 118.82 34.9383 118.864C34.9967 118.907 35.0935 118.944 35.1538 118.945C35.214 118.945 35.4354 119.031 35.646 119.135C35.8566 119.238 36.0843 119.324 36.1521 119.324C36.2198 119.324 36.3671 119.374 36.4794 119.433C36.5916 119.493 36.719 119.541 36.7625 119.541C36.8447 119.541 37.1331 119.626 37.3688 119.719C37.6195 119.817 37.7225 119.851 37.9704 119.917C38.6001 120.084 38.8223 120.151 38.8729 120.19C38.9308 120.235 39.2023 120.3 39.4408 120.326C39.5194 120.334 39.6912 120.382 39.8222 120.43C39.9532 120.479 40.1255 120.529 40.205 120.541C40.2846 120.554 40.5834 120.625 40.8691 120.7C41.6171 120.897 41.8412 120.948 41.9636 120.948C42.0233 120.948 42.2259 121 42.414 121.065C42.6022 121.129 42.8176 121.19 42.8928 121.2C43.2777 121.25 43.4724 121.289 43.5218 121.327C43.5518 121.35 43.7115 121.386 43.8762 121.408C44.041 121.431 44.2718 121.481 44.389 121.522C44.506 121.563 44.71 121.597 44.8421 121.597C44.9741 121.597 45.1248 121.62 45.177 121.648C45.2292 121.676 45.432 121.727 45.6275 121.761C45.8231 121.796 46.0691 121.843 46.1744 121.866C46.5622 121.953 46.6797 121.931 46.8837 121.734L46.8823 121.731Z" fill="#E7AA2A"/>
</svg>
